<?xml version="1.0" standalone="no"?> <!DOCTYPE svg PUBLIC "-//W3C//DTD SVG 1.0//EN" "http://www.w3.org/TR/2001/REC-SVG-20010904/DTD/svg10.dtd" > <svg xmlns="http://www.w3.org/2000/svg" width="100%" height="100%">
<defs >
<font horiz-adv-x="871" ><font-face
    font-family="Inception"
    units-per-em="1000"
    panose-1="2 0 8 4 3 0 0 2 0 4"
    ascent="932"
    descent="-200"
    alphabetic="0" />
<missing-glyph horiz-adv-x="300" />
<glyph unicode=" " glyph-name="space" horiz-adv-x="300" />
<glyph unicode="!" glyph-name="exclam" horiz-adv-x="324" d="M214 35H114V136H145V125H125V46H203V125H184V136H214V35ZM249 0H79V172H249V104H238V161H90V11H238V69H249V0ZM183 67H146V104H183V67ZM157 78H172V93H157V78ZM212 242L201 243L247 682V697H142V682L156
279L145 278L131 682V708H258V682L212 242ZM183 237H118L70 682V702H81V682L128 248H172L187 667L198 666L183 237Z" />
<glyph unicode="&quot;" glyph-name="quotedbl" horiz-adv-x="1992" d="M635 163Q616 173 597 166V0H523V199Q542 208 572 212T648 215L635 163ZM719 81Q725 46 763 46Q782 46 796 49T819 58L836 12Q822 5 803 1T754 -3Q701 -3 675 27T649 106Q649 154 674 185T749
216Q799 216 822 184T842 97L719 81ZM745 172Q728 172 720 158T714 116L774 125Q774 172 745 172ZM943 -3Q908 -3 891 15T874 62V163H852V211H874V255L948 273V211H979V163H948V68Q948 46 964 46Q971 46 979 50V3Q974 1 965 -1T943 -3ZM1035 239Q1018 239 1007
248T996 272Q996 286 1007 296T1035 306Q1051 306 1062 296T1073 272Q1073 258 1062 249T1035 239ZM997 0V211H1071V0H997ZM1181 -3Q1143 -3 1117 25T1091 107Q1091 161 1118 188T1180 216Q1200 216 1213 212T1235 200L1220 159Q1211 166 1198 166Q1166 166 1166
107Q1166 49 1198 49Q1213 49 1220 57L1236 12Q1228 5 1216 1T1181 -3ZM1344 -3Q1297 -3 1273 13T1249 72V211H1323V66Q1323 58 1328 52T1346 46Q1358 46 1365 50V211H1439V13Q1423 5 1400 1T1344 -3ZM1466 0V308H1540V0H1466ZM1656 -3Q1557 -3 1557 65Q1557 85
1566 98T1592 120T1630 133T1675 140V149Q1675 161 1667 165T1643 170Q1627 170 1612 166T1585 157L1570 199Q1582 204 1604 210T1657 216Q1696 216 1720 198T1744 134V12Q1730 5 1708 1T1656 -3ZM1675 107Q1653 105 1640 98T1626 68Q1626 37 1659 37Q1669 37 1675
40V107ZM1783 0Q1778 0 1775 3T1771 12Q1771 17 1774 20T1783 24Q1788 24 1792 21T1796 12Q1796 0 1783 0ZM1852 149V0H1837V148H1818V157H1837V183Q1837 203 1848 216T1882 229V219Q1870 217 1861 211T1852 185V157H1882V149H1852ZM1956 147Q1945 149 1934 149T1917
143V0H1901V150Q1912 155 1923 157T1960 160L1956 147ZM516 71Q499 76 480 79Q463 81 442 81T398 77Q361 69 338 60T296 46T255 40T200 48Q183 52 164 62T126 84T87 111T49 141Q7 175 -35 217Q-3 206 28 196Q54 188 82 181T130 172Q150 171 180 175T244 183T313
190T377 190Q404 185 429 166T474 126Q497 101 516 71ZM458 170Q452 177 444 183Q437 188 428 193T407 203Q387 209 374 211T349 215T329 223T307 242Q295 255 286 278T270 325Q263 352 258 382Q268 368 279 356Q288 345 298 334T317 318Q326 312 341 306T373 293T407
278T436 261Q447 251 451 236T458 206Q460 188 458 170ZM508 55Q496 48 485 41Q475 34 464 26T443 7Q428 -10 420 -22T405 -43T387 -60T355 -74Q333 -81 301 -81T237 -78Q201 -74 161 -68Q183 -63 202 -58Q219 -53 235 -47T263 -35Q273 -29 283 -19T306 3T331 26T361
45Q384 55 410 58T458 60Q484 59 508 55Z" />
<glyph unicode="#" glyph-name="numbersign" horiz-adv-x="700" d="M258 272L286 434H441L413 272H258ZM271 283H404L428 423H295L271 283ZM561 434H663V423H570L546 283H627V272H533L561 434ZM138 272H36V283H129L152 423H72V434H165L138 272ZM583 188H486L454
0H355L380 145H247L223 4L212 6L238 156H393L368 11H445L477 199H583V188ZM431 188H211L179 0H80L105 145H30V237H164L205 469H66V561H176L201 702L211 700L186 550H77V480H218L142 40L131 42L156 188H80V199H158L162 226H41V156H118L93 11H170L202 199H444L417
40L406 42L431 188ZM116 519H213L245 707H344L319 561H452L476 702L487 700L461 550H306L331 696H255L222 508H116V519ZM669 561V469H535L495 237H633V145H523L499 4L488 6L513 156H622V226H481L525 476L557 666L568 665L543 519H619V508H541L537 480H658V550H581L606
696H530L497 508H255L282 666L293 665L268 519H488L520 707H619L594 561H669ZM206 226L251 480H493L449 226H206ZM220 237H439L480 469H260L220 237Z" />
<glyph unicode="$" glyph-name="dollar" horiz-adv-x="646" d="M338 431V383Q347 381 356 378T377 372L383 370Q415 361 445 350T498 320T536 277T553 215L542 214Q540 248 526 271T490 312T439 340T380 360L374 362Q362 365 352 368T331 374Q315 379 302 383T276
391Q244 403 223 414T189 440T170 472T164 513V516Q164 548 190 579T273 622V657Q209 646 171 609T128 514H117Q121 577 164 618T277 669L284 670V613L279 612Q252 607 233 597T200 574T181 546T175 516V513Q175 494 179 479T194 451T226 426T280 402Q291 398 302
395T327 386V431V573V626H333Q360 624 383 619Q436 609 497 573L492 564Q432 598 381 608Q358 613 338 614V573V431ZM447 195Q447 170 430 153T383 128L376 126V268L384 265Q419 251 433 236T447 197V195ZM387 140Q436 154 436 195V197Q436 214 427 226T387 252V140ZM273
287Q223 300 185 317T120 358T79 416T65 498V500Q65 543 79 579T121 643T186 688T273 712V763H387V709Q492 693 576 625L569 617Q487 682 381 699L376 700V752H284V703L279 702Q233 697 196 681T132 638T91 576T76 500V498Q76 453 89 421T126 366T188 327T273 298V339Q247
347 221 357T174 383T137 421T118 474L129 475Q136 429 171 400T280 348L284 347V291V129L277 131Q204 147 130 209L137 218Q206 160 273 143V287ZM217 514Q217 537 232 553T277 576L284 578V440L276 443Q243 456 230 471T217 512V514ZM273 564Q252 557 240 544T228
514V512Q228 494 236 481T273 456V564ZM387 422Q435 409 474 392T540 351T583 292T599 211V209Q599 118 543 61T387 -9V-99H273V-7Q207 2 148 29T39 101L35 105L100 182L104 180Q155 147 197 128T279 99Q291 96 303 95T327 91V129V277V335L334 333Q348 328 360
325T384 317Q419 305 442 293T479 267T499 234T505 192V189Q505 172 498 155T477 124T440 98T387 82V47Q450 55 490 89T540 176L551 174Q541 117 496 80T382 35Q375 34 368 34T354 34H332Q318 36 305 37T277 42Q184 62 94 118L100 127Q191 71 279 53Q293 50 306
49T333 45H354Q359 45 365 45T376 46V91L381 92Q410 96 431 106T467 129T487 158T494 189V192Q494 212 490 227T474 256T440 282T380 307Q370 310 360 313T338 320V277V129V80H332Q318 81 305 83T277 88Q237 97 195 116T102 168L50 106Q98 64 156 38T279 3H284V-88H376V-10Q367
-11 358 -11T338 -12V-51H327V-1H335Q358 -1 381 2Q479 13 533 67T588 209V211Q588 256 573 288T531 344T466 384T380 412L376 413V570L383 568Q409 560 436 547T491 513L541 585Q502 609 461 626T381 653Q368 655 356 657T332 660H327V714H338V671Q349 669 360
668T383 663Q425 654 468 636T551 591L556 588L494 498L490 501Q436 539 387 555V422Z" />
<glyph unicode="%" glyph-name="percent" horiz-adv-x="860" d="M176 -5H116L630 702L638 696L138 6H170L677 705H742L229 -2L220 4L720 694H683L176 -5ZM213 343Q177 343 146 355T92 390T55 444T40 512L51 513Q52 478 65 449T99 398T150 366T213 354Q249 354
279 367T330 402T364 456T377 524V525Q377 562 365 593T331 646T280 681T214 694Q179 694 150 682T99 649T64 598T50 532H39Q40 569 54 601T91 656T146 692T214 705Q252 705 284 692T339 654T375 597T388 525V524Q388 485 375 452T339 394T283 357T213 343ZM215
370Q186 370 162 381T121 413T95 462T85 524V525Q85 589 117 630T201 677L202 666Q154 661 125 623T96 525V524Q96 492 104 466T129 421T167 392T215 381Q267 381 299 420T331 523V524Q331 583 302 622T225 666L227 677Q252 674 273 662T310 629T333 582T342 524V523Q342
455 307 413T215 370ZM214 410Q175 410 150 441T125 524V525Q125 575 149 606T213 637Q251 637 275 608T302 532L291 531Q289 573 268 599T213 626Q178 626 157 599T136 525V524Q136 479 157 450T214 421Q247 421 268 446T291 513L302 512Q299 466 275 438T214
410ZM641 -5Q604 -5 573 7T519 42T483 96T467 164L478 165Q480 130 492 101T526 51T577 18T641 6Q677 6 707 19T758 54T792 108T805 176V177Q805 214 793 245T759 298T707 333T642 346Q607 346 578 334T526 301T492 250T478 184H467Q468 221 482 253T519 308T573
344T642 357Q680 357 712 344T767 306T803 249T816 177V176Q816 137 803 104T767 46T711 9T641 -5ZM642 23Q613 23 590 34T549 65T523 114T513 176V177Q513 241 544 282T629 329L630 318Q582 314 553 276T524 177V176Q524 113 556 74T642 34Q695 34 727 72T759
175V176Q759 235 730 274T653 318L654 329Q679 326 700 314T737 281T761 234T770 176V175Q770 107 735 65T642 23ZM642 63Q602 63 578 94T553 176V177Q553 227 577 258T641 290Q678 290 703 261T730 184H719Q717 226 695 252T641 279Q606 279 585 251T564 177V176Q564
131 585 103T642 74Q674 74 695 98T719 165L730 164Q727 119 703 91T642 63Z" />
<glyph unicode="&amp;" glyph-name="ampersand" horiz-adv-x="696" d="M674 71L591 13L477 129Q465 117 455 108T444 97Q364 32 271 32Q227 32 190 44T127 79T86 134T71 204V206Q71 310 198 367L238 383L284 402Q367 431 401 462T436 537V541Q436 585 408 611T331
637Q282 637 252 608T222 531V528Q222 502 231 479T260 429Q262 426 264 424T269 418L260 411Q254 419 251 422Q230 450 221 474T211 528V531Q211 584 244 616T331 648Q383 648 415 619T447 541V537Q447 509 436 488T405 450T355 418T288 391L242 373L203 357Q82
303 82 206V204Q82 168 96 139T135 88T194 55T271 43Q361 43 436 106Q442 111 448 117Q453 122 459 128T473 141L477 145L592 28L657 73L555 174L558 178Q584 213 605 249T647 320L614 338L584 355Q567 323 546 289T500 221L476 190L327 339L334 347L475 206L492
228Q517 262 538 297T577 365L580 370L620 348L617 343L620 348L662 325L659 320Q639 284 618 247T570 175L674 71ZM472 82L556 -3L548 -11L471 67Q377 -9 267 -9Q214 -9 170 6T93 49T44 115T26 199V201Q26 332 160 395Q113 463 113 532V534Q113 569 127 603T168
664T236 707T331 724Q375 724 412 711T476 673T518 615T533 542V540Q533 414 390 356L472 273Q505 324 536 387L546 382Q529 348 512 318T478 262L474 256L371 360L379 363Q522 418 522 540V542Q522 579 508 610T468 664T407 700T331 713Q280 713 242 698T177 657T137
600T124 534V532Q124 497 136 464T172 396L176 390L170 387Q37 327 37 201V199Q37 155 54 119T101 58T174 18T267 3Q374 3 468 79L472 82ZM311 360L272 343L227 323Q182 301 159 269T136 199V196Q136 148 174 118T272 87Q343 87 414 142Q419 145 423 149Q427 152
431 156T441 166L286 324L294 331L456 166L453 162Q442 151 432 143T421 133Q346 76 272 76Q207 76 166 109T125 196V199Q125 241 150 275T222 333L268 353L307 370L367 396Q479 440 479 540V542Q479 572 468 597T437 640T390 668T330 679Q290 679 260 667T210
634T179 588T168 535V533Q168 478 206 422L221 401L212 395L197 416Q157 475 157 533V535Q157 564 168 592T201 642T255 677T330 691Q365 691 394 680T445 649T478 602T490 542V540Q490 434 371 386L311 360ZM604 309Q585 276 568 249T534 199L511 170L604 78L596
70L496 169L525 206Q542 229 558 255T595 315L604 309ZM322 593Q296 591 281 574T265 527V525Q265 505 273 487T302 445Q348 463 368 483T388 531V533Q388 555 377 570T346 590L349 601Q372 595 385 577T399 533V531Q399 499 377 476T303 433L299 432L296 435Q273
461 264 481T254 525V527Q254 559 272 580T322 604V593ZM196 182Q204 157 228 143T285 128Q330 128 377 163L251 292Q192 259 192 207V206H181V207Q181 268 249 304L253 305L394 162L389 158Q336 117 285 117Q248 117 222 133T185 179L196 182Z" />
<glyph unicode="&apos;" glyph-name="quotesingle" horiz-adv-x="286" d="M129 597V634H166V597H129ZM155 608V623H140V608H155ZM32 432L31 443Q47 444 64 449T95 464T117 490T124 530H62V700H135V689H73V541H134V536Q139 491 113 464T32 432ZM71 406L69 417Q94
421 114 429T147 454T167 495T174 561V565H97V665H198V591H187V654H108V576H185V561Q185 519 178 491T155 446T119 420T71 406ZM40 369L31 413L42 415L49 380Q139 383 181 426T223 561V689H166V700H234V561Q234 372 45 369H40Z" />
<glyph unicode="(" glyph-name="parenleft" horiz-adv-x="1992" d="M635 163Q616 173 597 166V0H523V199Q542 208 572 212T648 215L635 163ZM719 81Q725 46 763 46Q782 46 796 49T819 58L836 12Q822 5 803 1T754 -3Q701 -3 675 27T649 106Q649 154 674 185T749
216Q799 216 822 184T842 97L719 81ZM745 172Q728 172 720 158T714 116L774 125Q774 172 745 172ZM943 -3Q908 -3 891 15T874 62V163H852V211H874V255L948 273V211H979V163H948V68Q948 46 964 46Q971 46 979 50V3Q974 1 965 -1T943 -3ZM1035 239Q1018 239 1007
248T996 272Q996 286 1007 296T1035 306Q1051 306 1062 296T1073 272Q1073 258 1062 249T1035 239ZM997 0V211H1071V0H997ZM1181 -3Q1143 -3 1117 25T1091 107Q1091 161 1118 188T1180 216Q1200 216 1213 212T1235 200L1220 159Q1211 166 1198 166Q1166 166 1166
107Q1166 49 1198 49Q1213 49 1220 57L1236 12Q1228 5 1216 1T1181 -3ZM1344 -3Q1297 -3 1273 13T1249 72V211H1323V66Q1323 58 1328 52T1346 46Q1358 46 1365 50V211H1439V13Q1423 5 1400 1T1344 -3ZM1466 0V308H1540V0H1466ZM1656 -3Q1557 -3 1557 65Q1557 85
1566 98T1592 120T1630 133T1675 140V149Q1675 161 1667 165T1643 170Q1627 170 1612 166T1585 157L1570 199Q1582 204 1604 210T1657 216Q1696 216 1720 198T1744 134V12Q1730 5 1708 1T1656 -3ZM1675 107Q1653 105 1640 98T1626 68Q1626 37 1659 37Q1669 37 1675
40V107ZM1783 0Q1778 0 1775 3T1771 12Q1771 17 1774 20T1783 24Q1788 24 1792 21T1796 12Q1796 0 1783 0ZM1852 149V0H1837V148H1818V157H1837V183Q1837 203 1848 216T1882 229V219Q1870 217 1861 211T1852 185V157H1882V149H1852ZM1956 147Q1945 149 1934 149T1917
143V0H1901V150Q1912 155 1923 157T1960 160L1956 147ZM516 71Q499 76 480 79Q463 81 442 81T398 77Q361 69 338 60T296 46T255 40T200 48Q183 52 164 62T126 84T87 111T49 141Q7 175 -35 217Q-3 206 28 196Q54 188 82 181T130 172Q150 171 180 175T244 183T313
190T377 190Q404 185 429 166T474 126Q497 101 516 71ZM458 170Q452 177 444 183Q437 188 428 193T407 203Q387 209 374 211T349 215T329 223T307 242Q295 255 286 278T270 325Q263 352 258 382Q268 368 279 356Q288 345 298 334T317 318Q326 312 341 306T373 293T407
278T436 261Q447 251 451 236T458 206Q460 188 458 170ZM508 55Q496 48 485 41Q475 34 464 26T443 7Q428 -10 420 -22T405 -43T387 -60T355 -74Q333 -81 301 -81T237 -78Q201 -74 161 -68Q183 -63 202 -58Q219 -53 235 -47T263 -35Q273 -29 283 -19T306 3T331 26T361
45Q384 55 410 58T458 60Q484 59 508 55Z" />
<glyph unicode=")" glyph-name="parenright" horiz-adv-x="1992" d="M635 163Q616 173 597 166V0H523V199Q542 208 572 212T648 215L635 163ZM719 81Q725 46 763 46Q782 46 796 49T819 58L836 12Q822 5 803 1T754 -3Q701 -3 675 27T649 106Q649 154 674 185T749
216Q799 216 822 184T842 97L719 81ZM745 172Q728 172 720 158T714 116L774 125Q774 172 745 172ZM943 -3Q908 -3 891 15T874 62V163H852V211H874V255L948 273V211H979V163H948V68Q948 46 964 46Q971 46 979 50V3Q974 1 965 -1T943 -3ZM1035 239Q1018 239 1007
248T996 272Q996 286 1007 296T1035 306Q1051 306 1062 296T1073 272Q1073 258 1062 249T1035 239ZM997 0V211H1071V0H997ZM1181 -3Q1143 -3 1117 25T1091 107Q1091 161 1118 188T1180 216Q1200 216 1213 212T1235 200L1220 159Q1211 166 1198 166Q1166 166 1166
107Q1166 49 1198 49Q1213 49 1220 57L1236 12Q1228 5 1216 1T1181 -3ZM1344 -3Q1297 -3 1273 13T1249 72V211H1323V66Q1323 58 1328 52T1346 46Q1358 46 1365 50V211H1439V13Q1423 5 1400 1T1344 -3ZM1466 0V308H1540V0H1466ZM1656 -3Q1557 -3 1557 65Q1557 85
1566 98T1592 120T1630 133T1675 140V149Q1675 161 1667 165T1643 170Q1627 170 1612 166T1585 157L1570 199Q1582 204 1604 210T1657 216Q1696 216 1720 198T1744 134V12Q1730 5 1708 1T1656 -3ZM1675 107Q1653 105 1640 98T1626 68Q1626 37 1659 37Q1669 37 1675
40V107ZM1783 0Q1778 0 1775 3T1771 12Q1771 17 1774 20T1783 24Q1788 24 1792 21T1796 12Q1796 0 1783 0ZM1852 149V0H1837V148H1818V157H1837V183Q1837 203 1848 216T1882 229V219Q1870 217 1861 211T1852 185V157H1882V149H1852ZM1956 147Q1945 149 1934 149T1917
143V0H1901V150Q1912 155 1923 157T1960 160L1956 147ZM516 71Q499 76 480 79Q463 81 442 81T398 77Q361 69 338 60T296 46T255 40T200 48Q183 52 164 62T126 84T87 111T49 141Q7 175 -35 217Q-3 206 28 196Q54 188 82 181T130 172Q150 171 180 175T244 183T313
190T377 190Q404 185 429 166T474 126Q497 101 516 71ZM458 170Q452 177 444 183Q437 188 428 193T407 203Q387 209 374 211T349 215T329 223T307 242Q295 255 286 278T270 325Q263 352 258 382Q268 368 279 356Q288 345 298 334T317 318Q326 312 341 306T373 293T407
278T436 261Q447 251 451 236T458 206Q460 188 458 170ZM508 55Q496 48 485 41Q475 34 464 26T443 7Q428 -10 420 -22T405 -43T387 -60T355 -74Q333 -81 301 -81T237 -78Q201 -74 161 -68Q183 -63 202 -58Q219 -53 235 -47T263 -35Q273 -29 283 -19T306 3T331 26T361
45Q384 55 410 58T458 60Q484 59 508 55Z" />
<glyph unicode="*" glyph-name="asterisk" horiz-adv-x="430" d="M188 548L68 618L89 653L180 600V700H191V581L93 638L83 622L194 558L188 548ZM74 448L52 483L144 537L57 587L63 597L166 537L68 479L78 463L177 521L183 511L74 448ZM253 374H242V492L340 435L350
452L245 513L250 522L365 455L343 420L253 473V374ZM370 477L267 537L365 594L354 613L213 531V705H253V600L339 651L344 641L242 581V694H224V550L358 629L380 590L289 537L376 486L370 477ZM224 368H180V473L94 423L89 432L191 492V379H213V513H224V368Z" />
<glyph unicode="+" glyph-name="plus" horiz-adv-x="640" d="M351 376H105V387H340V573H351V376ZM568 422H385V599H302V427H291V610H396V433H568V422ZM396 110H385V293H563V376H391V387H574V282H396V110ZM351 104H246V282H73V293H257V115H340V338H537V327H351V104ZM302
141H291V327H68V433H246V605H257V422H79V338H302V141Z" />
<glyph unicode="," glyph-name="comma" horiz-adv-x="286" d="M161 68H124V105H161V68ZM135 79H150V94H135V79ZM27 -97L26 -86Q42 -85 59 -80T90 -65T112 -39T119 1H57V171H130V160H68V12H129V7Q134 -38 108 -65T27 -97ZM66 -123L64 -112Q89 -108 109 -100T142
-75T162 -34T169 32V36H92V136H193V62H182V125H103V47H180V32Q180 -10 173 -38T150 -83T114 -109T66 -123ZM35 -160L26 -116L37 -114L44 -149Q134 -146 176 -103T218 32V160H161V171H229V32Q229 -157 40 -160H35Z" />
<glyph unicode="-" glyph-name="hyphen" horiz-adv-x="408" d="M337 281H45V384H357V373H56V292H337V281ZM362 236H50V247H351V329H70V340H362V236Z" />
<glyph unicode="." glyph-name="period" horiz-adv-x="286" d="M187 35H86V135H187V105H176V124H97V46H176V65H187V35ZM222 0H155V11H211V159H61V11H120V0H50V170H222V0ZM155 66H118V103H155V66ZM129 77H144V92H129V77Z" />
<glyph unicode="/" glyph-name="slash" horiz-adv-x="530" d="M63 -127H-34L410 802L420 797L-17 -116H56L476 761L486 757L63 -127ZM108 -124L98 -119L535 794H462L44 -81L34 -76L456 805H552L108 -124Z" />
<glyph unicode="0" glyph-name="zero" horiz-adv-x="730" d="M367 127Q332 127 303 143T252 190T220 262T208 354V356Q208 406 219 447T252 518T301 564T365 581Q398 581 426 566T475 523T508 456T523 370H512Q510 414 498 451T467 514T421 555T365 570Q333 570
306 555T260 511T230 443T219 356V354Q219 306 230 267T260 199T307 154T367 138Q428 138 467 190T512 331L523 330Q520 285 508 248T475 183T427 142T367 127ZM367 719Q435 719 492 692T591 617T656 502T680 356V354Q680 274 657 208T591 92T492 16T365 -11Q299
-11 243 14T146 84T80 192T52 330L63 331Q66 258 89 197T153 93T247 25T365 0Q431 0 486 26T582 100T646 212T669 354V356Q669 432 647 497T584 608T488 681T367 708Q302 708 248 683T153 614T89 507T62 370H51Q54 443 77 506T143 618Q187 669 243 694T367 719ZM628
354Q628 288 611 232T561 133T485 65T387 35L386 46Q437 50 479 75T552 140T600 235T617 354V356Q617 423 599 479T547 577T467 641T367 664Q312 664 266 641T187 576T134 478T115 354V352Q115 288 132 234T179 139T252 74T346 45L345 34Q292 38 248 63T171 131T122
229T104 352V354Q104 424 123 482T178 584T261 651T367 675Q424 675 471 651T554 585T608 484T628 356V354ZM346 623Q306 619 273 598T217 542T180 460T167 357V354Q167 294 181 245T222 160T286 104T367 84Q411 84 447 103T510 157T550 242T565 352V354Q565 409
552 456T515 538T458 596T385 623L387 634Q429 629 463 606T523 546T562 460T576 354V352Q576 292 562 242T520 153Q462 73 367 73Q320 73 282 93T215 151T172 240T156 354V357Q156 415 169 464T208 549T268 608T345 634L346 623Z" />
<glyph unicode="1" glyph-name="one" horiz-adv-x="422" d="M184 5H173V544L53 515L29 611L225 663H286V49H275V652H226L42 603L61 528L184 558V5ZM335 0H223V603L108 574L106 585L234 617V11H324V701H226L27 641L24 652L225 712H335V0Z" />
<glyph unicode="2" glyph-name="two" horiz-adv-x="623" d="M571 44H100V55H560V132H246L372 229Q418 265 452 295T508 355T542 418T553 494V496Q553 544 537 582T490 648T416 691T319 706Q272 706 235 696T168 668T113 623T64 564L55 570Q80 604 106 631T163
677T232 706T319 717Q428 717 496 657Q564 597 564 496V494Q564 450 553 416T519 350T461 288T379 221L278 143H571V44ZM565 0H45V129L279 321Q310 347 332 367T369 407T390 444T397 483Q397 523 374 545T309 568Q268 568 238 545T171 477L168 473L86 538L89 542Q111
573 134 597T185 639T245 665T319 674Q414 674 465 626T517 487V485Q517 447 505 417T471 360T417 308T347 252L339 245L193 135L186 143L340 260Q379 290 410 315T462 366T494 420T506 485V487Q506 573 458 618T319 663Q280 663 249 655T193 630T145 591T101 540L166
488Q203 533 234 556T309 579Q355 579 381 554T408 483Q408 460 401 441T379 402T341 361T286 312L56 124V11H565V0ZM521 88H100V114L319 293Q356 324 383 348T428 397T452 448T455 513Q452 547 428 574T365 614Q311 631 256 611T155 536L147 543Q195 599 253 620T368
624Q410 611 436 582T466 514Q470 475 463 446T438 392T392 341T326 285L318 279L111 109V99H521V88Z" />
<glyph unicode="3" glyph-name="three" horiz-adv-x="621" d="M310 -11Q138 -11 34 111L31 115L106 186L110 183Q158 135 208 113T321 90Q382 90 419 123T457 211V214Q457 275 408 308T266 341H250L235 400L428 594V614H118V625H439V589L248 396L258 352H266Q363
352 415 316T468 214V211Q468 151 428 115T321 79Q258 79 207 101T106 171L46 114Q145 0 310 0Q365 0 410 16T487 61T537 131T555 222V224Q555 273 538 307T495 362T437 396T373 413L362 415L544 589V696H79V707H555V584L385 422Q417 416 449 403T507 367T549 309T566
224V222Q566 169 548 127T496 53T415 6T310 -11ZM305 32Q256 32 204 53T103 112L109 121Q157 83 207 63T305 43Q398 43 452 90T507 219V221Q507 261 494 288T459 333T411 360T359 375L290 382L286 401L489 595V652H85V576H366L193 402L215 312H274Q342 312 379
288T416 218V216Q416 175 388 151T312 126Q261 126 221 146T140 211L148 219Q186 175 225 156T312 137Q354 137 379 159T405 216V218Q405 258 371 279T274 301H206L181 405L339 565H74V663H500V590L298 397L299 393L361 386Q388 381 416 371T466 341T503 293T518
221V219Q518 177 503 143T460 84T393 46T305 32Z" />
<glyph unicode="4" glyph-name="four" horiz-adv-x="689" d="M405 274H202L405 511V274ZM226 285H394V481L226 285ZM551 5H540V161H633V232H490V654H434L95 262L109 205H402V194H100L83 265L429 665H501V243H644V150H551V5ZM501 0H394V150H55L28 265L414 712H551V285H639V274H540V701H419L40
262L64 161H405V11H490V205H600V194H501V0ZM452 49H441V599L150 262L155 243H402V232H146L138 265L452 628V49Z" />
<glyph unicode="5" glyph-name="five" horiz-adv-x="630" d="M181 294L88 356L108 707H540V696H118L99 362L182 307Q242 332 298 332Q357 332 392 305T427 232V230Q427 182 395 155T305 128Q260 128 220 146T135 205L143 213Q185 175 224 157T305 139Q358 139
387 162T416 230V232Q416 274 385 297T298 321Q245 321 184 295L181 294ZM318 423Q356 423 393 413T461 381T509 323T528 235V233Q528 187 513 150T468 87T398 46T307 32Q249 32 199 49T101 104L107 113Q154 77 202 60T307 43Q355 43 393 56T459 95T502 155T517
233V235Q517 319 465 365T318 412Q307 412 293 411T264 407T235 403T212 399L209 398L184 415L196 619H496V608H207L196 420L211 410Q221 412 235 414T264 419T293 422T318 423ZM504 411Q577 352 577 237V235Q577 179 558 134T504 56T418 7T307 -11Q228 -11 164
14T43 95L39 98L106 178L110 175Q162 131 207 112T302 93Q380 93 423 130T467 233V236Q467 299 422 334T295 369Q271 369 247 366T194 354Q192 353 191 353T189 352Q188 352 188 352T185 351L183 350L138 381L155 663H546V562H249L242 455Q260 459 280 462T328
465Q438 465 504 411ZM566 237Q566 341 504 397T328 454Q298 454 278 451T238 442L230 440L239 573H535V652H165L150 387L185 362V363Q187 363 188 363T191 364Q248 380 295 380Q381 380 429 343T478 236V233Q478 161 432 122T302 82Q251 82 206 101T107 163L54
99Q108 48 170 24T307 0Q366 0 414 16T495 64T547 138T566 235V237Z" />
<glyph unicode="6" glyph-name="six" horiz-adv-x="662" d="M354 612Q300 612 264 591T206 537T174 462T159 381Q156 351 156 317T161 248T178 184T211 130Q254 82 333 82Q378 82 409 96T459 134T486 185T495 241Q495 269 484 292T454 332T408 358T350 368Q318
368 292 361T247 344T216 324T198 307L189 314Q195 321 208 332T241 353T289 371T350 379Q384 379 412 369T462 340T494 297T506 241Q506 209 496 179T465 124T411 86T333 71Q250 71 203 123Q181 147 169 179T151 245T145 315T148 382Q159 500 211 561T354 623Q392
623 425 614T493 585L487 575Q455 595 423 603T354 612ZM331 120Q274 120 239 150T204 229V231Q204 279 238 308T329 337Q386 337 421 308T456 230V228Q456 178 422 149T331 120ZM215 229Q215 184 247 158T331 131Q383 131 414 157T445 228V230Q445 274 414 300T329
326Q277 326 246 300T215 231V229ZM359 708Q225 708 147 620T60 370L49 371Q54 448 75 511T133 619Q215 719 359 719Q424 719 475 701T580 642L573 633Q523 673 473 690T359 708ZM358 464Q415 464 461 448T540 403T590 331T608 237V235Q608 181 588 136T531 59T446
8T337 -11Q271 -11 222 7T133 65Q89 109 69 172T48 331H59Q60 238 79 177T140 73Q178 35 226 18T337 0Q394 0 441 17T523 66T577 141T597 235V237Q597 286 580 326T532 394T457 437T358 453Q306 453 274 439T217 409L207 403L209 414Q217 494 255 537T354 580Q398
580 429 567T495 527L543 598Q514 621 470 641T359 661Q278 661 229 627T153 543T118 437T109 334V332Q109 173 174 105Q225 50 311 42L310 31Q220 39 166 97Q98 169 98 332V334Q98 408 113 468T157 572Q224 672 359 672Q395 672 424 666T477 650T520 628T554 604L558
600L498 511L493 515Q458 541 428 555T354 569Q318 569 294 555T255 520T232 473T221 425Q245 440 277 452T358 464ZM359 412Q302 412 262 395T199 359L193 367Q217 387 258 405T359 423Q403 423 440 409T506 365Q531 340 544 308T556 241Q556 146 502 91T351 30L350
41Q442 46 493 98T545 241Q546 274 534 304T498 357Q472 384 437 398T359 412Z" />
<glyph unicode="7" glyph-name="seven" horiz-adv-x="619" d="M262 0H134L450 573V607H114V618H461V570L460 569L153 11H256L565 587V696H70V707H576V584L262 0ZM91 3L81 8L388 563H64V663H521V584L229 41L219 46L510 587V652H75V574H406L91 3Z" />
<glyph unicode="8" glyph-name="eight" horiz-adv-x="630" d="M315 410Q268 410 239 435T210 501V503Q210 519 216 534T236 562T269 581T315 589Q353 589 381 571T417 523L406 520Q398 546 374 562T315 578Q268 578 245 555T221 503V501Q221 466 247 444T315 421Q351
421 375 437T407 483L417 481Q410 448 383 429T315 410ZM315 115Q258 115 224 140T189 207V209Q189 250 223 275T315 300Q372 300 406 275T440 209V207Q440 165 406 140T315 115ZM315 289Q262 289 231 268T200 209V207Q200 171 232 149T315 126Q366 126 397 148T429
207V209Q429 246 398 267T315 289ZM315 -11Q257 -11 209 2T124 41T67 101T41 178L52 179Q56 139 76 106T131 50T212 13T315 0Q375 0 423 14T505 54T558 117T577 199V201Q577 256 552 293T468 360L459 365L468 370Q513 397 533 432T554 517V519Q554 559 536 593T486
651T411 690T315 704Q263 704 219 690T143 652T93 593T75 519V517Q75 467 95 432T161 370L170 364L161 360Q109 336 83 302T53 218L42 219Q49 317 147 366Q105 394 85 430T64 517V519Q64 562 83 598T135 660T215 700T315 715Q369 715 415 701T494 660T546 598T565
519V517Q565 467 545 431T481 365Q538 334 563 296T588 201V199Q588 101 510 44Q473 17 424 3T315 -11ZM315 73Q274 73 240 83T182 110T145 152T131 207V210Q131 270 181 306T315 342Q356 342 389 333T447 306T484 264T498 210V207Q498 177 485 153T447 110T390
83T315 73ZM315 331Q235 331 189 298T142 210V207Q142 180 154 157T190 118T245 93T315 84Q393 84 440 117T487 207V210Q487 265 441 298T315 331ZM315 372Q247 372 205 408T163 504V507Q163 532 173 554T201 592T246 618T303 630V619Q274 618 251 609T210 585T184
550T174 507V504Q174 450 213 417T315 383Q378 383 416 415T455 502V505Q455 549 425 579T343 618L344 629Q399 621 432 587T466 505V502Q466 473 455 450T424 409T376 382T315 372ZM303 26Q255 27 216 40T148 77T104 133T88 203V204Q88 306 184 353Q199 360 219
366Q204 370 188 378Q176 385 163 397T140 425T123 463T116 509V510Q116 546 131 576T172 627T234 661T315 674Q358 674 394 662T457 628T498 576T513 510V509Q513 484 507 463T490 426T466 397T440 378Q426 371 408 366Q418 364 427 361T445 353Q490 330 515 292T541
208V206Q541 168 527 137T488 83T426 45T344 27L343 38Q430 45 480 90T530 206V208Q530 251 506 286T440 343Q410 357 376 360V371Q410 376 435 388Q447 394 458 405T480 431T496 466T502 509V510Q502 543 488 571T449 620T390 651T315 663Q274 663 240 652T180
620T141 572T127 510V509Q127 486 133 467T149 432T170 406T194 388Q218 374 254 371V360Q215 357 189 343Q99 299 99 204V203Q99 167 113 138T155 86T219 51T303 37V26Z" />
<glyph unicode="9" glyph-name="nine" horiz-adv-x="662" d="M307 96Q361 96 396 117T454 172T487 247T501 327Q504 357 504 391T499 460T482 524T449 578Q405 626 328 626Q283 626 252 612T202 574T174 523T165 467Q165 440 176 417T206 376T252 350T311 340Q342
340 368 347T413 364T445 384T463 401L472 394Q466 387 453 376T420 355T372 337T311 329Q277 329 248 339T198 368T166 411T154 467Q154 499 164 529T196 584T250 622T328 637Q410 637 458 586Q480 562 492 530T509 463T515 393T512 326Q501 209 449 147T307 85Q269
85 236 94T168 123L173 133Q206 113 238 105T307 96ZM329 588Q386 588 421 558T456 479V477Q456 429 422 400T331 371Q274 371 240 400T205 478V480Q205 530 238 559T329 588ZM445 479Q445 524 414 550T329 577Q277 577 247 551T216 480V478Q216 434 247 408T331
382Q383 382 414 408T445 477V479ZM301 0Q436 0 514 88T600 338H611Q603 181 527 89Q446 -11 301 -11Q236 -11 184 7T80 66L87 75Q138 35 188 18T301 0ZM302 244Q245 244 199 260T121 305T70 377T52 471V473Q52 527 72 572T129 649T214 700T323 719Q389 719 439
701T528 643Q572 599 592 536T612 378L601 377Q601 470 582 531T520 635Q482 673 435 690T323 708Q267 708 219 691T137 642T83 568T63 473V471Q63 422 80 382T128 314T203 271T302 255Q354 255 386 269T444 299L453 305L452 294Q444 214 406 171T306 128Q263 128
232 141T166 181L117 110Q147 87 191 67T301 47Q355 47 395 63T462 105T507 165T534 235T547 308T551 375V376Q551 535 487 603Q435 658 350 666L351 677Q439 669 495 611Q529 574 545 517T562 376V375Q562 300 547 240T503 136Q435 36 301 36Q266 36 237 42T184
58T141 80T106 105L102 108L163 197L168 193Q203 167 233 153T306 139Q342 139 366 153T405 189T429 236T440 283Q416 268 384 256T302 244ZM302 296Q359 296 398 313T461 350L468 341Q444 321 403 303T302 285Q258 285 220 300T154 343Q130 369 117 400T105 467Q105
562 159 617T310 678V667Q218 662 167 610T116 467Q114 399 162 351Q188 325 224 311T302 296Z" />
<glyph unicode=":" glyph-name="colon" horiz-adv-x="296" d="M200 35H99V135H200V105H189V124H110V46H189V65H200V35ZM235 0H168V11H224V159H74V11H133V0H63V170H235V0ZM168 66H131V103H168V66ZM142 77H157V92H142V77ZM200 409H99V439H110V420H189V498H110V479H99V509H200V409ZM235
374H63V544H131V533H74V385H224V533H166V544H235V374ZM168 440H131V477H168V440ZM142 451H157V466H142V451Z" />
<glyph unicode=";" glyph-name="semicolon" horiz-adv-x="296" d="M167 68H130V105H167V68ZM141 79H156V94H141V79ZM199 410H98V441H109V421H188V499H109V480H98V510H199V410ZM235 375H63V545H130V534H74V386H224V534H165V545H235V375ZM167 442H130V479H167V442ZM141
453H156V468H141V453ZM33 -97L32 -86Q48 -85 65 -80T96 -65T118 -39T125 1H63V171H136V160H74V12H135V7Q140 -38 114 -65T33 -97ZM72 -123L70 -112Q95 -108 115 -100T148 -75T168 -34T175 32V36H98V136H199V62H188V125H109V47H186V32Q186 -10 179 -38T156 -83T120
-109T72 -123ZM41 -160L32 -116L43 -114L50 -149Q140 -146 182 -103T224 32V160H167V171H235V32Q235 -157 46 -160H41Z" />
<glyph unicode="&lt;" glyph-name="less" horiz-adv-x="1992" d="M635 163Q616 173 597 166V0H523V199Q542 208 572 212T648 215L635 163ZM719 81Q725 46 763 46Q782 46 796 49T819 58L836 12Q822 5 803 1T754 -3Q701 -3 675 27T649 106Q649 154 674 185T749 216Q799
216 822 184T842 97L719 81ZM745 172Q728 172 720 158T714 116L774 125Q774 172 745 172ZM943 -3Q908 -3 891 15T874 62V163H852V211H874V255L948 273V211H979V163H948V68Q948 46 964 46Q971 46 979 50V3Q974 1 965 -1T943 -3ZM1035 239Q1018 239 1007 248T996
272Q996 286 1007 296T1035 306Q1051 306 1062 296T1073 272Q1073 258 1062 249T1035 239ZM997 0V211H1071V0H997ZM1181 -3Q1143 -3 1117 25T1091 107Q1091 161 1118 188T1180 216Q1200 216 1213 212T1235 200L1220 159Q1211 166 1198 166Q1166 166 1166 107Q1166
49 1198 49Q1213 49 1220 57L1236 12Q1228 5 1216 1T1181 -3ZM1344 -3Q1297 -3 1273 13T1249 72V211H1323V66Q1323 58 1328 52T1346 46Q1358 46 1365 50V211H1439V13Q1423 5 1400 1T1344 -3ZM1466 0V308H1540V0H1466ZM1656 -3Q1557 -3 1557 65Q1557 85 1566 98T1592
120T1630 133T1675 140V149Q1675 161 1667 165T1643 170Q1627 170 1612 166T1585 157L1570 199Q1582 204 1604 210T1657 216Q1696 216 1720 198T1744 134V12Q1730 5 1708 1T1656 -3ZM1675 107Q1653 105 1640 98T1626 68Q1626 37 1659 37Q1669 37 1675 40V107ZM1783
0Q1778 0 1775 3T1771 12Q1771 17 1774 20T1783 24Q1788 24 1792 21T1796 12Q1796 0 1783 0ZM1852 149V0H1837V148H1818V157H1837V183Q1837 203 1848 216T1882 229V219Q1870 217 1861 211T1852 185V157H1882V149H1852ZM1956 147Q1945 149 1934 149T1917 143V0H1901V150Q1912
155 1923 157T1960 160L1956 147ZM516 71Q499 76 480 79Q463 81 442 81T398 77Q361 69 338 60T296 46T255 40T200 48Q183 52 164 62T126 84T87 111T49 141Q7 175 -35 217Q-3 206 28 196Q54 188 82 181T130 172Q150 171 180 175T244 183T313 190T377 190Q404 185
429 166T474 126Q497 101 516 71ZM458 170Q452 177 444 183Q437 188 428 193T407 203Q387 209 374 211T349 215T329 223T307 242Q295 255 286 278T270 325Q263 352 258 382Q268 368 279 356Q288 345 298 334T317 318Q326 312 341 306T373 293T407 278T436 261Q447
251 451 236T458 206Q460 188 458 170ZM508 55Q496 48 485 41Q475 34 464 26T443 7Q428 -10 420 -22T405 -43T387 -60T355 -74Q333 -81 301 -81T237 -78Q201 -74 161 -68Q183 -63 202 -58Q219 -53 235 -47T263 -35Q273 -29 283 -19T306 3T331 26T361 45Q384 55
410 58T458 60Q484 59 508 55Z" />
<glyph unicode="=" glyph-name="equal" horiz-adv-x="640" d="M524 457H77V561H554V550H88V468H524V457ZM559 413H82V424H548V505H112V516H559V413ZM524 198H77V302H554V291H88V209H524V198ZM559 154H82V165H548V247H112V258H559V154Z" />
<glyph unicode="&gt;" glyph-name="greater" horiz-adv-x="1992" d="M635 163Q616 173 597 166V0H523V199Q542 208 572 212T648 215L635 163ZM719 81Q725 46 763 46Q782 46 796 49T819 58L836 12Q822 5 803 1T754 -3Q701 -3 675 27T649 106Q649 154 674 185T749
216Q799 216 822 184T842 97L719 81ZM745 172Q728 172 720 158T714 116L774 125Q774 172 745 172ZM943 -3Q908 -3 891 15T874 62V163H852V211H874V255L948 273V211H979V163H948V68Q948 46 964 46Q971 46 979 50V3Q974 1 965 -1T943 -3ZM1035 239Q1018 239 1007
248T996 272Q996 286 1007 296T1035 306Q1051 306 1062 296T1073 272Q1073 258 1062 249T1035 239ZM997 0V211H1071V0H997ZM1181 -3Q1143 -3 1117 25T1091 107Q1091 161 1118 188T1180 216Q1200 216 1213 212T1235 200L1220 159Q1211 166 1198 166Q1166 166 1166
107Q1166 49 1198 49Q1213 49 1220 57L1236 12Q1228 5 1216 1T1181 -3ZM1344 -3Q1297 -3 1273 13T1249 72V211H1323V66Q1323 58 1328 52T1346 46Q1358 46 1365 50V211H1439V13Q1423 5 1400 1T1344 -3ZM1466 0V308H1540V0H1466ZM1656 -3Q1557 -3 1557 65Q1557 85
1566 98T1592 120T1630 133T1675 140V149Q1675 161 1667 165T1643 170Q1627 170 1612 166T1585 157L1570 199Q1582 204 1604 210T1657 216Q1696 216 1720 198T1744 134V12Q1730 5 1708 1T1656 -3ZM1675 107Q1653 105 1640 98T1626 68Q1626 37 1659 37Q1669 37 1675
40V107ZM1783 0Q1778 0 1775 3T1771 12Q1771 17 1774 20T1783 24Q1788 24 1792 21T1796 12Q1796 0 1783 0ZM1852 149V0H1837V148H1818V157H1837V183Q1837 203 1848 216T1882 229V219Q1870 217 1861 211T1852 185V157H1882V149H1852ZM1956 147Q1945 149 1934 149T1917
143V0H1901V150Q1912 155 1923 157T1960 160L1956 147ZM516 71Q499 76 480 79Q463 81 442 81T398 77Q361 69 338 60T296 46T255 40T200 48Q183 52 164 62T126 84T87 111T49 141Q7 175 -35 217Q-3 206 28 196Q54 188 82 181T130 172Q150 171 180 175T244 183T313
190T377 190Q404 185 429 166T474 126Q497 101 516 71ZM458 170Q452 177 444 183Q437 188 428 193T407 203Q387 209 374 211T349 215T329 223T307 242Q295 255 286 278T270 325Q263 352 258 382Q268 368 279 356Q288 345 298 334T317 318Q326 312 341 306T373 293T407
278T436 261Q447 251 451 236T458 206Q460 188 458 170ZM508 55Q496 48 485 41Q475 34 464 26T443 7Q428 -10 420 -22T405 -43T387 -60T355 -74Q333 -81 301 -81T237 -78Q201 -74 161 -68Q183 -63 202 -58Q219 -53 235 -47T263 -35Q273 -29 283 -19T306 3T331 26T361
45Q384 55 410 58T458 60Q484 59 508 55Z" />
<glyph unicode="?" glyph-name="question" horiz-adv-x="544" d="M292 35H262V46H281V125H203V46H222V35H192V136H292V35ZM327 0H157V67H168V11H316V161H168V102H157V172H327V0ZM260 67H224V104H260V67ZM235 78H249V93H235V78ZM191 242L167 406L176 414H178Q347
421 347 499V501Q347 533 325 549T261 566Q220 566 185 550T115 499L111 495L43 571L46 574Q94 625 147 648T263 672Q356 672 409 627T463 502Q463 458 448 429T410 382T358 354T301 339L274 333V305H263V342L299 349Q379 365 415 401T452 502Q452 576 402 618T263
661Q203 661 153 639T58 570L112 511Q179 577 261 577Q306 577 332 557T358 501V499Q358 410 180 403L179 402L201 244L191 242ZM302 237H235L216 372L222 373Q400 397 400 501V504Q400 555 365 584T270 614Q184 614 110 559L103 568Q181 625 270 625Q336 625 373
593T411 504V501Q411 388 228 363L245 248H293L304 308L307 309Q406 329 452 376T499 503V505Q499 551 483 588T436 652T362 692T264 706Q120 706 24 600L16 607Q116 717 264 717Q321 717 366 703T444 661T493 594T510 505V503Q510 339 313 299L302 237Z" />
<glyph unicode="@" glyph-name="at" horiz-adv-x="980" d="M462 166Q417 166 390 193T363 268Q363 298 373 324T400 370T439 401T488 413Q532 413 559 386T586 315Q586 284 576 257T550 210T510 178T462 166ZM488 402Q464 402 444 392T408 363T383 321T374 268Q374
226 397 202T462 177Q485 177 505 188T541 217T566 261T575 315Q575 354 551 378T488 402ZM499 -162Q404 -162 323 -128T180 -35T85 104T50 277Q50 368 84 448T179 589T319 683T491 718Q579 718 659 687T803 596Q863 539 896 467T930 319Q930 261 916 214T875 134T810
82T726 64Q665 64 629 82T574 121Q508 64 427 64Q386 64 352 78T292 119T254 181T240 261Q240 313 258 359T307 440T380 495T468 516Q551 516 602 455L612 502L740 481L692 208Q690 201 690 193T689 178Q689 152 707 137T756 121Q812 121 844 174T877 319Q877 389
846 452T763 563T640 639T491 667Q409 667 339 637T216 555T133 431T103 277Q103 194 133 123T216 0T341 -81T499 -111Q567 -111 623 -96T740 -46L745 -55Q684 -91 627 -106T499 -122Q412 -122 338 -92T209 -8T123 118T92 277Q92 361 123 434T207 562T334 647T491
678Q572 678 644 650T774 568Q829 517 858 453T888 319Q888 271 879 233T852 167T811 125T756 110Q721 110 700 129T678 178Q678 184 678 193T681 210L727 472L620 489L608 430L601 439Q553 505 468 505Q424 505 385 486T316 433T269 355T251 261Q251 220 264 186T300
127T355 89T427 75Q507 75 571 133L575 137L578 132Q587 122 599 112T630 94T672 80T726 75Q770 75 805 92T866 141T905 218T919 319Q919 398 885 468T792 592T656 676T491 707Q402 707 324 673T188 581T95 444T61 277Q61 187 95 109T188 -27T327 -118T499 -151Q571
-151 634 -133T759 -77L765 -87Q702 -125 637 -143T499 -162ZM645 178Q645 183 645 187T646 197L690 448L649 455L643 456L642 450L602 223Q599 219 587 204T560 174Q543 157 513 144T446 130Q415 130 389 140T345 169T316 214T306 272Q306 310 320 343T357 402T412
443T478 458Q546 458 584 408L592 415Q551 469 478 469Q441 469 408 454T349 411T310 348T295 272Q295 238 306 210T337 162T385 130T446 119Q485 119 517 134T567 166Q576 174 584 183T598 200Q605 209 611 218L612 219L652 443L677 439L635 198Q635 193 635 188T634
178Q634 166 636 153T647 128T670 105T711 91L713 102Q690 106 677 114T657 132T647 155T645 178Z" />
<glyph unicode="A" glyph-name="A" horiz-adv-x="790" d="M294 291L395 537L495 291H294ZM395 508L310 302H479L395 508ZM432 668L716 0H602L538 156H251L189 3L179 7L244 167H545L609 11H700L425 657H366L107 47L96 51L359 668H432ZM770 7L760 3L463 701H330L36
11H129L394 634L642 51L632 47L566 201H258V212H561L394 606L245 255H508V244H240L136 0H19L322 712H471L770 7Z" />
<glyph unicode="B" glyph-name="B" horiz-adv-x="722" d="M490 493Q490 479 485 465T468 440T433 422T374 414H227V572H384Q435 572 462 552T490 495V493ZM238 425H374Q479 425 479 493V495Q479 527 455 544T384 561H238V425ZM557 370Q621 344 650 303T680 198V196Q680
102 611 51T414 0H78V701H89V11H414Q536 11 602 59T669 196V198Q669 260 639 299T543 364L532 368L542 374Q631 423 631 519V521Q631 590 585 636Q523 696 406 696H133V707H406Q530 707 592 643Q642 593 642 521V519Q642 422 557 370ZM528 215Q528 201 524 187T507
161T472 142T414 134H227V298H409Q446 298 469 291T506 272T523 246T528 217V215ZM238 145H414Q517 145 517 215V217Q517 287 409 287H238V145ZM547 493Q547 458 538 435T508 397T453 377T368 370H127V662H414Q507 662 556 613Q594 575 594 520V518H583V520Q583
570 548 605Q502 651 414 651H138V381H368Q422 381 455 388T506 408T530 443T536 493V497Q536 553 497 582T384 612H188V414H177V623H384Q462 623 504 590T547 497V493ZM631 203Q631 128 579 87T430 46H127V338H376Q433 338 473 332T538 311T574 274T586 218V214Q586
152 536 121T385 89H177V294H188V100H385Q418 100 451 104T512 121T557 156T575 214V218Q575 244 568 264T538 298T478 319T376 327H138V57H430Q521 57 570 95T620 203V204H631V203Z" />
<glyph unicode="C" glyph-name="C" horiz-adv-x="738" d="M418 709Q343 709 279 684T168 613T92 505T61 368H50Q52 440 80 504T157 617Q208 667 275 693T418 720Q506 720 572 694T696 611L689 603Q632 659 568 684T418 709ZM432 624Q481 622 520 607T593 562L586
554Q523 609 432 613V624ZM705 119L702 115Q670 81 638 57T571 18T497 -4T412 -11Q338 -11 274 15T161 87T83 196T50 333H61Q65 262 93 201T169 96T278 26T412 0Q500 0 565 27T690 118L630 179Q614 162 593 146T545 115T484 93T410 84Q356 84 309 104T225 163Q190
200 171 249T152 353V354Q152 359 152 365T153 377Q157 427 176 470T226 546T300 599T391 623L392 612Q345 608 305 589T235 539T186 466T164 376Q163 370 163 365T163 354V353Q163 298 182 251T234 169T312 115T410 95Q450 95 483 104T543 126T590 157T625 191L629
195L705 119ZM642 126Q597 81 547 60T432 35V46Q494 49 542 70T634 134L642 126ZM417 567Q375 567 339 551T277 507T236 440T221 356V354Q221 309 236 270T277 203T339 158T417 141Q474 141 514 162T596 221L604 213Q582 193 562 178T519 152T472 136T417 130Q373
130 335 147T269 194T226 265T210 354V356Q210 404 225 444T269 514T335 561T417 578Q465 578 507 560T595 502L652 568Q601 617 545 640T416 663Q350 663 294 640T197 575T133 477T110 354V352Q110 290 131 236T190 141T280 75T392 46L391 35Q328 39 275 65T182
133T121 232T99 352V354Q99 422 123 480T189 582T290 649T416 674Q562 674 663 572L667 569L663 565L596 487L591 490Q547 531 506 549T417 567Z" />
<glyph unicode="D" glyph-name="D" horiz-adv-x="782" d="M355 149Q401 149 438 163T503 205T544 269T559 353V355Q559 398 546 434T509 496T450 538T373 557H355H242V143H231V568H355H374Q418 565 454 548T516 503T556 438T570 355V353Q570 305 555 266T511 198T443
154T355 138H281V149H355ZM193 611V97H344Q404 97 454 115T541 168T597 249T617 352V354Q617 411 598 457T542 537T456 588T344 606H237V617H344Q408 617 460 598T549 545T607 462T628 354V352Q628 293 607 244T549 160T459 106T344 86H182V611H193ZM355 11Q431
11 496 34T609 100T685 200T718 330L729 329Q725 260 697 200T618 94Q566 47 500 24T355 0H133V662H332Q409 662 472 641T584 577Q632 535 656 479T680 356V353Q680 285 655 228T583 130T473 67T332 44H188V55H332Q407 55 469 77T575 138T644 232T669 353V356Q669
422 645 476T576 570T470 630T332 651H144V11H355ZM719 369Q716 440 688 500T611 603T497 671T355 696H89V5H78V707H355Q433 707 501 682T620 610Q671 563 699 502T730 370L719 369Z" />
<glyph unicode="E" glyph-name="E" horiz-adv-x="670" d="M575 45H126V660H616V560H243V429H571V282H243V147H615V136H232V293H560V418H232V571H605V649H137V56H575V45ZM621 0H80V707H610V696H91V11H610V90H181V339H513V371H181V617H570V606H192V382H524V328H192V101H621V0Z"
/>
<glyph unicode="F" glyph-name="F" horiz-adv-x="656" d="M244 5H233V280H565V408H233V567H610V652H146V49H135V663H621V556H244V419H576V269H244V5ZM195 0H80V707H615V696H91V11H184V326H521V359H184V617H572V606H195V370H532V315H195V0Z" />
<glyph unicode="G" glyph-name="G" horiz-adv-x="784" d="M419 709Q344 709 280 684T168 613T92 505T61 368H50Q53 440 80 504T158 617Q209 667 276 693T419 720Q506 720 572 694T697 611L689 603Q633 658 569 683T419 709ZM432 624Q481 622 520 607T593 562L586
554Q523 609 432 613V624ZM602 153Q519 84 410 84Q356 84 309 104T226 163Q190 200 171 249T152 353V354Q152 359 152 365T153 377Q157 427 176 470T226 546T300 599T391 623L392 612Q345 608 305 589T235 539T187 466T164 376Q163 370 163 365T163 354V353Q163
298 182 251T234 169T312 115T410 95Q462 95 508 111T593 160V278H604V154L602 153ZM406 401V324H664V147L642 126Q597 81 547 60T432 35V46Q494 49 542 70T635 134L653 152V313H395V412H703V401H406ZM418 567Q376 567 340 551T278 507T236 440T221 356V354Q221
309 236 270T277 203T340 158T418 141Q489 141 549 182V269H400V280H560V175H557H558Q525 152 492 141T418 130Q373 130 335 147T270 194T226 265T210 354V356Q210 404 226 444T269 514T335 561T418 578Q466 578 508 560T595 502L652 568Q602 617 545 640T417 663Q351
663 295 640T198 575T134 477T110 354V352Q110 290 131 236T190 141T280 75T392 46V35Q329 39 276 65T183 133T122 232T99 352V354Q99 422 123 480T190 582T291 649T417 674Q562 674 663 572L667 569L664 565L596 487L592 490Q547 531 506 549T418 567ZM708 368V102L706
101Q577 -9 413 -11Q339 -11 275 15T162 87T84 196T51 333H62Q65 263 93 203T167 98T274 27T405 0Q569 0 697 107V357H444V368H708Z" />
<glyph unicode="H" glyph-name="H" horiz-adv-x="760" d="M138 60H127V707H242V431H513V701H524V420H231V696H138V60ZM677 5H666V696H574V371H182V646H193V382H563V707H677V5ZM628 0H513V279H242V5H231V290H524V11H617V646H628V0ZM193 0H78V701H89V11H182V340H574V60H563V329H193V0Z"
/>
<glyph unicode="I" glyph-name="I" horiz-adv-x="336" d="M200 0H85V701H96V11H189V657H200V0ZM249 5H238V696H145V49H134V707H249V5Z" />
<glyph unicode="J" glyph-name="J" horiz-adv-x="564" d="M243 -11Q101 -11 12 95L8 99L84 183L88 175Q101 153 123 135Q142 120 173 108T253 96Q307 96 339 130Q355 147 363 167T374 207Q378 229 377 251V645H388V252Q388 251 388 238T385 205T373 163T347 123Q312
85 253 85Q211 85 181 94T130 116T98 142T81 164L23 99Q108 0 243 0Q357 0 420 63Q484 126 484 245V700H495V245Q495 122 428 55Q362 -11 243 -11ZM253 36Q217 36 188 42T137 57T97 78T68 101L76 109Q98 88 141 68T253 47Q336 47 382 96Q403 118 414 144T429 194T434
234T435 250V695H338V252Q338 214 329 191T306 154T274 136T239 131Q204 131 173 148T108 202L116 210Q148 174 177 158T239 142Q327 142 327 252V706H446V250Q446 248 446 232T441 191T424 140T390 88Q341 36 253 36Z" />
<glyph unicode="K" glyph-name="K" horiz-adv-x="730" d="M139 50H128V707H243V411L516 705L524 697L232 383V696H139V50ZM713 2L414 406L692 696H577L183 268V657H194V297L572 707H717L428 405L722 9L713 2ZM194 0H79V701H90V11H183V228L325 382L568 53L559 46L324
364L194 224V0ZM662 0H531L317 293L243 216V6H232V220L318 310L536 11H641L348 406L585 661L593 654L362 406L662 0Z" />
<glyph unicode="L" glyph-name="L" horiz-adv-x="619" d="M593 44H135V657H146V55H582V139H233V701H244V150H593V44ZM588 0H80V707H195V100H550V89H184V696H91V11H588V0Z" />
<glyph unicode="M" glyph-name="M" horiz-adv-x="868" d="M433 166L636 466V0H625V430L433 146L242 430V0H231V466L433 166ZM787 707V0H674V579L433 233L193 579V0H80V707H91V11H182V614L433 252L685 614V11H776V707H787ZM146 49H135V707H252L433 424L615 707H732V49H721V696H692L433
318L174 696H146V49ZM246 696H188L433 338L679 696H621L433 404L246 696Z" />
<glyph unicode="N" glyph-name="N" horiz-adv-x="790" d="M649 657H660V0H571L242 431V0H231V464L576 11H623L193 569V0H80V707H91V11H182V601L637 11H649V657ZM709 707V0H698V696H608V119L152 696H146V49H135V707H229L547 289V707H558V256L224 696H166L597 151V707H709Z" />
<glyph unicode="O" glyph-name="O" horiz-adv-x="850" d="M423 -11Q348 -11 281 14T162 88Q111 136 83 198T49 330L60 331Q64 259 93 199T171 94T283 25T423 0Q500 0 566 27T682 102T760 214T788 354V356Q788 431 761 496T684 608T569 682T425 709Q350 709 285
683T171 612T93 504T60 370L49 371Q52 446 82 509T163 620T280 693T425 720Q505 720 573 692T692 616T770 501T799 356V354Q799 280 772 214T693 96Q640 44 571 17T423 -11ZM425 130Q380 130 341 147T272 195T226 266T209 354V356Q209 404 225 444T270 514T338
561T423 578Q467 578 505 563T572 520T618 454T639 371L628 370Q625 413 608 449T564 511T501 552T423 567Q379 567 342 551T278 507T236 440T220 356V354Q220 309 235 270T278 203T343 158T425 141Q466 141 501 155T563 194T607 254T627 331L638 330Q634 286 617
250T571 187T505 145T425 130ZM425 75Q368 75 319 96T232 158Q195 197 176 247T156 354V357Q156 413 174 461T225 546T303 606T401 633L402 622Q351 618 308 596T234 539T185 458T167 357V354Q167 297 186 248T240 163T322 107T425 86Q480 86 526 106T607 162T661
246T681 352V354Q681 408 663 455T613 538T537 596T442 622V633Q496 629 541 606T620 546T673 459T692 354V352Q692 293 672 242T616 154T531 96T425 75ZM442 31V42Q505 45 559 70T653 138T715 235T738 354V356Q738 422 714 479T648 578T549 643T425 667Q359 667
302 643T202 577T135 477T110 354V352Q110 289 132 234T193 138T285 71T402 42L401 31Q337 35 282 61T184 132Q142 177 121 233T99 352V354Q99 420 122 479T191 583Q237 629 297 653T425 678Q494 678 553 654T656 586T724 484T749 356V354Q749 288 726 231T661
131T564 61T442 31Z" />
<glyph unicode="P" glyph-name="P" horiz-adv-x="668" d="M243 0H125V667H351Q467 667 530 613T593 459V455Q593 408 576 370T528 304T453 261T356 246H190V49H179V257H356Q407 257 448 271T519 312T565 374T582 455V459Q582 553 522 604T351 656H136V11H232V220H354Q417
220 468 237T555 285T610 360T630 459V461Q630 514 612 557T559 631T477 679T369 696H90V5H79V707H369Q431 707 481 690T566 640T621 563T641 461V459Q641 402 621 356T563 277T472 227T354 209H243V0ZM356 294H179V614H190V305H356Q434 305 481 346T528 455V458Q528
530 483 569T352 608H238V619H352Q442 619 490 577T539 458V455Q539 419 526 390T488 339T431 306T356 294ZM359 345H282V356H359Q411 356 443 383T475 456V458Q475 506 444 532T356 558H243V350H232V569H356Q417 569 451 540T486 458V456Q486 405 451 375T359
345Z" />
<glyph unicode="Q" glyph-name="Q" horiz-adv-x="850" d="M695 352Q695 256 642 183L782 60L709 -22L633 46Q587 18 535 4T426 -11Q351 -11 284 14T164 88Q113 136 85 198T52 330L63 331Q67 259 96 199T173 94T286 25T426 0Q482 0 533 14T630 58L634 60L708 -6L766
59L496 298L503 306L634 190Q684 260 684 352V354Q684 408 666 455T616 538T539 596T444 622L445 633Q498 629 544 606T623 546T676 459T695 354V352ZM405 622Q354 618 311 596T237 539T188 458T170 357V354Q170 297 189 248T243 163T325 107T428 86Q502 86 561
122L567 113Q505 75 428 75Q371 75 322 96T234 158Q198 197 179 247T159 354V357Q159 413 177 461T228 546T306 606T404 633L405 622ZM694 188Q717 225 729 267T741 354V356Q741 422 717 479T651 578T552 643T428 667Q362 667 305 643T205 577T138 477T113 354V352Q113
289 134 234T195 138T287 71T405 42L404 31Q340 35 284 61T186 132Q145 177 124 233T102 352V354Q102 420 125 479T194 583Q239 629 299 653T428 678Q497 678 556 654T658 586T727 484T752 356V354Q752 308 740 264T704 182L694 188ZM639 107Q557 37 445 31L444
42Q551 48 631 114L430 287L502 368L615 266Q627 297 630 331L641 330Q638 292 622 255L619 248L503 353L446 288L722 49L715 41L639 107ZM809 98L802 90L729 152L731 156Q791 245 791 354V356Q791 431 764 496T687 608T572 682T428 709Q353 709 288 683T174 612T96
504T63 370L52 371Q55 446 85 509T165 620T283 693T428 720Q508 720 576 692T695 616T773 501T802 356V354Q802 300 787 250T743 154L809 98ZM426 578Q470 578 508 563T574 520T620 454T641 371L630 370Q627 413 611 449T567 511T504 552T426 567Q382 567 345 551T281
507T238 440T222 356V354Q222 309 237 270T281 203T346 158T428 141Q472 141 508 157L402 247L409 255L528 154L520 150Q477 130 428 130Q382 130 343 147T274 195T228 266T211 354V356Q211 404 227 444T273 514T341 561T426 578Z" />
<glyph unicode="R" glyph-name="R" horiz-adv-x="723" d="M390 305H180V614H191V316H390Q468 316 515 355T562 461V464Q562 534 517 571T386 608H239V619H386Q477 619 525 579T573 464V461Q573 389 524 347T390 305ZM393 356H283V367H393Q447 367 478 392T509
461V463Q509 492 498 510T470 539T431 554T390 558H244V361H233V569H390Q453 569 486 542T520 463V461Q520 413 486 385T393 356ZM682 2L513 250L519 253Q589 279 626 333T664 464V466Q664 519 646 561T594 634T512 680T403 696H91V5H80V707H403Q528 707 602 641Q638
609 656 565T675 466V464Q675 386 638 330T530 245L691 8L682 2ZM244 0H126V667H385Q503 667 565 615T627 464V460Q627 414 610 377T563 313T488 272T390 257H191V49H180V268H390Q441 268 483 281T554 320T600 381T616 460V464Q616 558 557 607T385 656H137V11H233V231H363L365
228L511 11H618L470 227Q460 225 451 224T430 222L549 46L540 40L411 231L420 232Q434 233 446 234T471 239L475 240L638 0H505L358 220H244V0Z" />
<glyph unicode="S" glyph-name="S" horiz-adv-x="640" d="M339 125Q284 125 233 145T128 211L135 219Q187 177 236 157T339 136Q384 136 409 152T434 196V198Q434 211 429 221T410 241T369 260T298 281Q248 294 205 309T131 348T81 408T63 499V501Q63 549 81 588T133
656T211 701T312 717Q461 717 574 627L567 618Q458 706 312 706Q259 706 215 692T140 650T91 585T74 501V499Q74 447 91 413T138 357T209 320T301 292Q343 281 371 272T415 251T438 228T445 198V196Q445 163 417 144T339 125ZM336 -10Q252 -10 176 19T37 103L33
106L99 184L103 182Q176 134 234 113T350 92Q385 92 412 100T457 123T484 155T493 191V194Q493 219 486 237T458 272T397 302T291 335L287 336Q257 344 229 355T177 382T138 420T117 475L127 477Q135 429 172 399T290 346L294 345Q358 328 398 313T462 281T495
244T504 194V191Q504 170 494 151T465 116T417 91T350 81Q292 81 233 102T101 170L49 107Q109 56 182 29T336 1Q394 1 440 15T518 57T568 123T586 211V213Q586 259 571 292T528 348T460 387T370 417Q324 429 294 438T247 457T222 481T215 513V515Q215 545 241 563T310
581Q393 581 490 515L539 586Q482 622 423 642T314 662Q234 662 183 622T126 515L115 516Q118 551 133 580T175 629T236 661T314 673Q366 673 428 652T550 593L555 589L493 500L488 503Q391 570 310 570Q272 570 249 556T226 515V513Q226 498 232 487T254 467T298
448T372 427Q423 414 464 397T535 355T581 296T597 213V211Q597 160 579 119T527 50T445 6T336 -10ZM540 216Q538 250 524 273T488 314T437 342T377 362L373 363Q309 380 268 395T204 427T172 465T163 515V518Q163 538 173 558T202 593T249 618T316 628Q362 628
404 616T496 575L490 565Q442 592 402 604T316 617Q281 617 255 609T210 586T183 554T174 518V515Q174 490 181 472T209 437T269 407T375 374L380 373Q412 364 442 352T495 322T534 279T551 217L540 216ZM352 35Q335 35 309 38T250 50T177 75T93 120L99 129Q142
102 180 86T251 61T309 49T352 46Q427 46 477 82T538 178L549 176Q538 111 485 73T352 35Z" />
<glyph unicode="T" glyph-name="T" horiz-adv-x="648" d="M350 0H241V555H29V657H562V646H40V566H252V11H350V0ZM405 5H394V566H606V696H35V707H617V555H405V5ZM350 6H339V563H350V6ZM302 49H291V599H79V610H612V599H302V49Z" />
<glyph unicode="U" glyph-name="U" horiz-adv-x="756" d="M375 -11Q229 -11 150 68Q68 150 68 303V701H79V303Q79 156 155 78T375 0Q521 0 597 79T674 308V696H582V307Q582 198 529 139T377 79Q278 79 225 140T172 313V657H183V313Q183 204 232 147T377 90Q471
90 521 145T571 307V707H685V308Q685 150 601 68Q520 -11 375 -11ZM375 32Q253 32 186 98Q117 169 117 296V707H232V307Q232 226 269 184T377 141Q447 141 484 182T521 302V701H532V302Q532 220 492 175T377 130Q302 130 262 176T221 307V696H128V296Q128 172 191
108T375 43Q496 43 560 109T625 300V657H636V300Q636 169 565 98Q497 32 375 32Z" />
<glyph unicode="V" glyph-name="V" horiz-adv-x="750" d="M338 43L71 706H197L375 226L552 702L562 699L375 195L190 695H88L345 54H407L649 659L660 655L414 43H338ZM445 -6H302L19 698L30 703L310 5H437L714 695H621L376 79L147 655L157 659L376 109L613 706H730L445
-6Z" />
<glyph unicode="W" glyph-name="W" horiz-adv-x="1122" d="M302 47L78 706H191L338 250L489 702L500 699L338 215L183 695H93L311 54H360L562 619L568 606L766 54H814L1019 658L1030 655L822 43H758L563 588L367 43H303L302 47ZM1093 706L849 -6H726L561 457L395
-6H272L31 699L41 702L280 5H387L561 490L734 5H841L1077 695H995L787 83L573 695H552L338 83L143 655L153 658L338 116L544 706H634L787 255L932 702L943 699L787 221L626 695H584L787 116L987 706H1093Z" />
<glyph unicode="X" glyph-name="X" horiz-adv-x="732" d="M150 0H23L269 359L39 698L48 704L283 359L44 11H144L364 336L556 52L547 46L364 317L150 0ZM695 2L450 361L679 696H579L368 389L187 654L196 660L368 408L573 707H700L463 361L704 8L695 2ZM129 46L119
52L330 359L93 707H225L368 486L511 704L520 698L368 465L219 696H114L343 359L129 46ZM649 0H517L364 234L212 2L203 8L364 254L523 11H628L390 361L594 660L603 654L403 361L649 0Z" />
<glyph unicode="Y" glyph-name="Y" horiz-adv-x="716" d="M440 5H429V284L430 286L692 696H590L358 326L155 654L165 660L358 347L584 707H712L440 281V5ZM339 49H328V287L62 707H196L359 432L523 704L533 698L359 411L190 696H82L339 290V49ZM388 0H276V278L9
698L19 704L287 281V11H377V293L378 294L611 660L621 654L388 290V0Z" />
<glyph unicode="Z" glyph-name="Z" horiz-adv-x="708" d="M650 44H115V123L530 605H121V616H554L126 118V55H639V134H250L639 587V696H77V707H650V583L274 145H650V44ZM645 0H60V124L436 561H72V663H595V590L175 101H601V90H151L584 594V652H83V572H460L71 120V11H645V0Z" />
<glyph unicode="[" glyph-name="bracketleft" horiz-adv-x="465" d="M410 -133H78V703H404V692H89V-122H399V-53H174V623H360V612H185V-42H410V-133ZM360 -94H127V665H410V574H234V-3H404V-14H223V585H399V654H138V-83H360V-94Z" />
<glyph unicode="\" glyph-name="backslash" horiz-adv-x="530" d="M495 -79L485 -83L65 794H-8L429 -119L419 -124L-25 805H72L495 -79ZM561 -127H465L43 754L53 759L471 -116H544L107 797L117 802L561 -127Z" />
<glyph unicode="]" glyph-name="bracketright" horiz-adv-x="465" d="M388 -132H61V-121H377V693H67V624H292V-52H105V-41H281V613H56V704H388V-132ZM338 -93H56V-2H232V575H61V586H243V-13H67V-82H327V655H105V666H338V-93Z" />
<glyph unicode="^" glyph-name="asciicircum" horiz-adv-x="500" d="M459 487H377V498H438L299 693H201L55 489L46 496L195 704H304L459 487ZM161 487H95L227 671H275L383 520L374 514L270 660H232L117 498H155L249 624L344 496L335 489L249 606L161 487Z" />
<glyph unicode="a" glyph-name="a" horiz-adv-x="790" d="M294 291L395 537L495 291H294ZM395 508L310 302H479L395 508ZM432 668L716 0H602L538 156H251L189 3L179 7L244 167H545L609 11H700L425 657H366L107 47L96 51L359 668H432ZM770 7L760 3L463 701H330L36
11H129L394 634L642 51L632 47L566 201H258V212H561L394 606L245 255H508V244H240L136 0H19L322 712H471L770 7Z" />
<glyph unicode="b" glyph-name="b" horiz-adv-x="722" d="M490 493Q490 479 485 465T468 440T433 422T374 414H227V572H384Q435 572 462 552T490 495V493ZM238 425H374Q479 425 479 493V495Q479 527 455 544T384 561H238V425ZM557 370Q621 344 650 303T680 198V196Q680
102 611 51T414 0H78V701H89V11H414Q536 11 602 59T669 196V198Q669 260 639 299T543 364L532 368L542 374Q631 423 631 519V521Q631 590 585 636Q523 696 406 696H133V707H406Q530 707 592 643Q642 593 642 521V519Q642 422 557 370ZM528 215Q528 201 524 187T507
161T472 142T414 134H227V298H409Q446 298 469 291T506 272T523 246T528 217V215ZM238 145H414Q517 145 517 215V217Q517 287 409 287H238V145ZM547 493Q547 458 538 435T508 397T453 377T368 370H127V662H414Q507 662 556 613Q594 575 594 520V518H583V520Q583
570 548 605Q502 651 414 651H138V381H368Q422 381 455 388T506 408T530 443T536 493V497Q536 553 497 582T384 612H188V414H177V623H384Q462 623 504 590T547 497V493ZM631 203Q631 128 579 87T430 46H127V338H376Q433 338 473 332T538 311T574 274T586 218V214Q586
152 536 121T385 89H177V294H188V100H385Q418 100 451 104T512 121T557 156T575 214V218Q575 244 568 264T538 298T478 319T376 327H138V57H430Q521 57 570 95T620 203V204H631V203Z" />
<glyph unicode="c" glyph-name="c" horiz-adv-x="738" d="M418 709Q343 709 279 684T168 613T92 505T61 368H50Q52 440 80 504T157 617Q208 667 275 693T418 720Q506 720 572 694T696 611L689 603Q632 659 568 684T418 709ZM432 624Q481 622 520 607T593 562L586
554Q523 609 432 613V624ZM705 119L702 115Q670 81 638 57T571 18T497 -4T412 -11Q338 -11 274 15T161 87T83 196T50 333H61Q65 262 93 201T169 96T278 26T412 0Q500 0 565 27T690 118L630 179Q614 162 593 146T545 115T484 93T410 84Q356 84 309 104T225 163Q190
200 171 249T152 353V354Q152 359 152 365T153 377Q157 427 176 470T226 546T300 599T391 623L392 612Q345 608 305 589T235 539T186 466T164 376Q163 370 163 365T163 354V353Q163 298 182 251T234 169T312 115T410 95Q450 95 483 104T543 126T590 157T625 191L629
195L705 119ZM642 126Q597 81 547 60T432 35V46Q494 49 542 70T634 134L642 126ZM417 567Q375 567 339 551T277 507T236 440T221 356V354Q221 309 236 270T277 203T339 158T417 141Q474 141 514 162T596 221L604 213Q582 193 562 178T519 152T472 136T417 130Q373
130 335 147T269 194T226 265T210 354V356Q210 404 225 444T269 514T335 561T417 578Q465 578 507 560T595 502L652 568Q601 617 545 640T416 663Q350 663 294 640T197 575T133 477T110 354V352Q110 290 131 236T190 141T280 75T392 46L391 35Q328 39 275 65T182
133T121 232T99 352V354Q99 422 123 480T189 582T290 649T416 674Q562 674 663 572L667 569L663 565L596 487L591 490Q547 531 506 549T417 567Z" />
<glyph unicode="d" glyph-name="d" horiz-adv-x="782" d="M355 149Q401 149 438 163T503 205T544 269T559 353V355Q559 398 546 434T509 496T450 538T373 557H355H242V143H231V568H355H374Q418 565 454 548T516 503T556 438T570 355V353Q570 305 555 266T511 198T443
154T355 138H281V149H355ZM193 611V97H344Q404 97 454 115T541 168T597 249T617 352V354Q617 411 598 457T542 537T456 588T344 606H237V617H344Q408 617 460 598T549 545T607 462T628 354V352Q628 293 607 244T549 160T459 106T344 86H182V611H193ZM355 11Q431
11 496 34T609 100T685 200T718 330L729 329Q725 260 697 200T618 94Q566 47 500 24T355 0H133V662H332Q409 662 472 641T584 577Q632 535 656 479T680 356V353Q680 285 655 228T583 130T473 67T332 44H188V55H332Q407 55 469 77T575 138T644 232T669 353V356Q669
422 645 476T576 570T470 630T332 651H144V11H355ZM719 369Q716 440 688 500T611 603T497 671T355 696H89V5H78V707H355Q433 707 501 682T620 610Q671 563 699 502T730 370L719 369Z" />
<glyph unicode="e" glyph-name="e" horiz-adv-x="670" d="M575 45H126V660H616V560H243V429H571V282H243V147H615V136H232V293H560V418H232V571H605V649H137V56H575V45ZM621 0H80V707H610V696H91V11H610V90H181V339H513V371H181V617H570V606H192V382H524V328H192V101H621V0Z"
/>
<glyph unicode="f" glyph-name="f" horiz-adv-x="656" d="M244 5H233V280H565V408H233V567H610V652H146V49H135V663H621V556H244V419H576V269H244V5ZM195 0H80V707H615V696H91V11H184V326H521V359H184V617H572V606H195V370H532V315H195V0Z" />
<glyph unicode="g" glyph-name="g" horiz-adv-x="784" d="M419 709Q344 709 280 684T168 613T92 505T61 368H50Q53 440 80 504T158 617Q209 667 276 693T419 720Q506 720 572 694T697 611L689 603Q633 658 569 683T419 709ZM432 624Q481 622 520 607T593 562L586
554Q523 609 432 613V624ZM602 153Q519 84 410 84Q356 84 309 104T226 163Q190 200 171 249T152 353V354Q152 359 152 365T153 377Q157 427 176 470T226 546T300 599T391 623L392 612Q345 608 305 589T235 539T187 466T164 376Q163 370 163 365T163 354V353Q163
298 182 251T234 169T312 115T410 95Q462 95 508 111T593 160V278H604V154L602 153ZM406 401V324H664V147L642 126Q597 81 547 60T432 35V46Q494 49 542 70T635 134L653 152V313H395V412H703V401H406ZM418 567Q376 567 340 551T278 507T236 440T221 356V354Q221
309 236 270T277 203T340 158T418 141Q489 141 549 182V269H400V280H560V175H557H558Q525 152 492 141T418 130Q373 130 335 147T270 194T226 265T210 354V356Q210 404 226 444T269 514T335 561T418 578Q466 578 508 560T595 502L652 568Q602 617 545 640T417 663Q351
663 295 640T198 575T134 477T110 354V352Q110 290 131 236T190 141T280 75T392 46V35Q329 39 276 65T183 133T122 232T99 352V354Q99 422 123 480T190 582T291 649T417 674Q562 674 663 572L667 569L664 565L596 487L592 490Q547 531 506 549T418 567ZM708 368V102L706
101Q577 -9 413 -11Q339 -11 275 15T162 87T84 196T51 333H62Q65 263 93 203T167 98T274 27T405 0Q569 0 697 107V357H444V368H708Z" />
<glyph unicode="h" glyph-name="h" horiz-adv-x="760" d="M138 60H127V707H242V431H513V701H524V420H231V696H138V60ZM677 5H666V696H574V371H182V646H193V382H563V707H677V5ZM628 0H513V279H242V5H231V290H524V11H617V646H628V0ZM193 0H78V701H89V11H182V340H574V60H563V329H193V0Z"
/>
<glyph unicode="i" glyph-name="i" horiz-adv-x="336" d="M200 0H85V701H96V11H189V657H200V0ZM249 5H238V696H145V49H134V707H249V5Z" />
<glyph unicode="j" glyph-name="j" horiz-adv-x="564" d="M243 -11Q101 -11 12 95L8 99L84 183L88 175Q101 153 123 135Q142 120 173 108T253 96Q307 96 339 130Q355 147 363 167T374 207Q378 229 377 251V645H388V252Q388 251 388 238T385 205T373 163T347 123Q312
85 253 85Q211 85 181 94T130 116T98 142T81 164L23 99Q108 0 243 0Q357 0 420 63Q484 126 484 245V700H495V245Q495 122 428 55Q362 -11 243 -11ZM253 36Q217 36 188 42T137 57T97 78T68 101L76 109Q98 88 141 68T253 47Q336 47 382 96Q403 118 414 144T429 194T434
234T435 250V695H338V252Q338 214 329 191T306 154T274 136T239 131Q204 131 173 148T108 202L116 210Q148 174 177 158T239 142Q327 142 327 252V706H446V250Q446 248 446 232T441 191T424 140T390 88Q341 36 253 36Z" />
<glyph unicode="k" glyph-name="k" horiz-adv-x="730" d="M139 50H128V707H243V411L516 705L524 697L232 383V696H139V50ZM713 2L414 406L692 696H577L183 268V657H194V297L572 707H717L428 405L722 9L713 2ZM194 0H79V701H90V11H183V228L325 382L568 53L559 46L324
364L194 224V0ZM662 0H531L317 293L243 216V6H232V220L318 310L536 11H641L348 406L585 661L593 654L362 406L662 0Z" />
<glyph unicode="l" glyph-name="l" horiz-adv-x="619" d="M593 44H135V657H146V55H582V139H233V701H244V150H593V44ZM588 0H80V707H195V100H550V89H184V696H91V11H588V0Z" />
<glyph unicode="m" glyph-name="m" horiz-adv-x="868" d="M433 166L636 466V0H625V430L433 146L242 430V0H231V466L433 166ZM787 707V0H674V579L433 233L193 579V0H80V707H91V11H182V614L433 252L685 614V11H776V707H787ZM146 49H135V707H252L433 424L615 707H732V49H721V696H692L433
318L174 696H146V49ZM246 696H188L433 338L679 696H621L433 404L246 696Z" />
<glyph unicode="n" glyph-name="n" horiz-adv-x="790" d="M649 657H660V0H571L242 431V0H231V464L576 11H623L193 569V0H80V707H91V11H182V601L637 11H649V657ZM709 707V0H698V696H608V119L152 696H146V49H135V707H229L547 289V707H558V256L224 696H166L597 151V707H709Z" />
<glyph unicode="o" glyph-name="o" horiz-adv-x="850" d="M423 -11Q348 -11 281 14T162 88Q111 136 83 198T49 330L60 331Q64 259 93 199T171 94T283 25T423 0Q500 0 566 27T682 102T760 214T788 354V356Q788 431 761 496T684 608T569 682T425 709Q350 709 285
683T171 612T93 504T60 370L49 371Q52 446 82 509T163 620T280 693T425 720Q505 720 573 692T692 616T770 501T799 356V354Q799 280 772 214T693 96Q640 44 571 17T423 -11ZM425 130Q380 130 341 147T272 195T226 266T209 354V356Q209 404 225 444T270 514T338
561T423 578Q467 578 505 563T572 520T618 454T639 371L628 370Q625 413 608 449T564 511T501 552T423 567Q379 567 342 551T278 507T236 440T220 356V354Q220 309 235 270T278 203T343 158T425 141Q466 141 501 155T563 194T607 254T627 331L638 330Q634 286 617
250T571 187T505 145T425 130ZM425 75Q368 75 319 96T232 158Q195 197 176 247T156 354V357Q156 413 174 461T225 546T303 606T401 633L402 622Q351 618 308 596T234 539T185 458T167 357V354Q167 297 186 248T240 163T322 107T425 86Q480 86 526 106T607 162T661
246T681 352V354Q681 408 663 455T613 538T537 596T442 622V633Q496 629 541 606T620 546T673 459T692 354V352Q692 293 672 242T616 154T531 96T425 75ZM442 31V42Q505 45 559 70T653 138T715 235T738 354V356Q738 422 714 479T648 578T549 643T425 667Q359 667
302 643T202 577T135 477T110 354V352Q110 289 132 234T193 138T285 71T402 42L401 31Q337 35 282 61T184 132Q142 177 121 233T99 352V354Q99 420 122 479T191 583Q237 629 297 653T425 678Q494 678 553 654T656 586T724 484T749 356V354Q749 288 726 231T661
131T564 61T442 31Z" />
<glyph unicode="p" glyph-name="p" horiz-adv-x="668" d="M243 0H125V667H351Q467 667 530 613T593 459V455Q593 408 576 370T528 304T453 261T356 246H190V49H179V257H356Q407 257 448 271T519 312T565 374T582 455V459Q582 553 522 604T351 656H136V11H232V220H354Q417
220 468 237T555 285T610 360T630 459V461Q630 514 612 557T559 631T477 679T369 696H90V5H79V707H369Q431 707 481 690T566 640T621 563T641 461V459Q641 402 621 356T563 277T472 227T354 209H243V0ZM356 294H179V614H190V305H356Q434 305 481 346T528 455V458Q528
530 483 569T352 608H238V619H352Q442 619 490 577T539 458V455Q539 419 526 390T488 339T431 306T356 294ZM359 345H282V356H359Q411 356 443 383T475 456V458Q475 506 444 532T356 558H243V350H232V569H356Q417 569 451 540T486 458V456Q486 405 451 375T359
345Z" />
<glyph unicode="q" glyph-name="q" horiz-adv-x="850" d="M695 352Q695 256 642 183L782 60L709 -22L633 46Q587 18 535 4T426 -11Q351 -11 284 14T164 88Q113 136 85 198T52 330L63 331Q67 259 96 199T173 94T286 25T426 0Q482 0 533 14T630 58L634 60L708 -6L766
59L496 298L503 306L634 190Q684 260 684 352V354Q684 408 666 455T616 538T539 596T444 622L445 633Q498 629 544 606T623 546T676 459T695 354V352ZM405 622Q354 618 311 596T237 539T188 458T170 357V354Q170 297 189 248T243 163T325 107T428 86Q502 86 561
122L567 113Q505 75 428 75Q371 75 322 96T234 158Q198 197 179 247T159 354V357Q159 413 177 461T228 546T306 606T404 633L405 622ZM694 188Q717 225 729 267T741 354V356Q741 422 717 479T651 578T552 643T428 667Q362 667 305 643T205 577T138 477T113 354V352Q113
289 134 234T195 138T287 71T405 42L404 31Q340 35 284 61T186 132Q145 177 124 233T102 352V354Q102 420 125 479T194 583Q239 629 299 653T428 678Q497 678 556 654T658 586T727 484T752 356V354Q752 308 740 264T704 182L694 188ZM639 107Q557 37 445 31L444
42Q551 48 631 114L430 287L502 368L615 266Q627 297 630 331L641 330Q638 292 622 255L619 248L503 353L446 288L722 49L715 41L639 107ZM809 98L802 90L729 152L731 156Q791 245 791 354V356Q791 431 764 496T687 608T572 682T428 709Q353 709 288 683T174 612T96
504T63 370L52 371Q55 446 85 509T165 620T283 693T428 720Q508 720 576 692T695 616T773 501T802 356V354Q802 300 787 250T743 154L809 98ZM426 578Q470 578 508 563T574 520T620 454T641 371L630 370Q627 413 611 449T567 511T504 552T426 567Q382 567 345 551T281
507T238 440T222 356V354Q222 309 237 270T281 203T346 158T428 141Q472 141 508 157L402 247L409 255L528 154L520 150Q477 130 428 130Q382 130 343 147T274 195T228 266T211 354V356Q211 404 227 444T273 514T341 561T426 578Z" />
<glyph unicode="r" glyph-name="r" horiz-adv-x="723" d="M390 305H180V614H191V316H390Q468 316 515 355T562 461V464Q562 534 517 571T386 608H239V619H386Q477 619 525 579T573 464V461Q573 389 524 347T390 305ZM393 356H283V367H393Q447 367 478 392T509
461V463Q509 492 498 510T470 539T431 554T390 558H244V361H233V569H390Q453 569 486 542T520 463V461Q520 413 486 385T393 356ZM682 2L513 250L519 253Q589 279 626 333T664 464V466Q664 519 646 561T594 634T512 680T403 696H91V5H80V707H403Q528 707 602 641Q638
609 656 565T675 466V464Q675 386 638 330T530 245L691 8L682 2ZM244 0H126V667H385Q503 667 565 615T627 464V460Q627 414 610 377T563 313T488 272T390 257H191V49H180V268H390Q441 268 483 281T554 320T600 381T616 460V464Q616 558 557 607T385 656H137V11H233V231H363L365
228L511 11H618L470 227Q460 225 451 224T430 222L549 46L540 40L411 231L420 232Q434 233 446 234T471 239L475 240L638 0H505L358 220H244V0Z" />
<glyph unicode="s" glyph-name="s" horiz-adv-x="640" d="M339 125Q284 125 233 145T128 211L135 219Q187 177 236 157T339 136Q384 136 409 152T434 196V198Q434 211 429 221T410 241T369 260T298 281Q248 294 205 309T131 348T81 408T63 499V501Q63 549 81 588T133
656T211 701T312 717Q461 717 574 627L567 618Q458 706 312 706Q259 706 215 692T140 650T91 585T74 501V499Q74 447 91 413T138 357T209 320T301 292Q343 281 371 272T415 251T438 228T445 198V196Q445 163 417 144T339 125ZM336 -10Q252 -10 176 19T37 103L33
106L99 184L103 182Q176 134 234 113T350 92Q385 92 412 100T457 123T484 155T493 191V194Q493 219 486 237T458 272T397 302T291 335L287 336Q257 344 229 355T177 382T138 420T117 475L127 477Q135 429 172 399T290 346L294 345Q358 328 398 313T462 281T495
244T504 194V191Q504 170 494 151T465 116T417 91T350 81Q292 81 233 102T101 170L49 107Q109 56 182 29T336 1Q394 1 440 15T518 57T568 123T586 211V213Q586 259 571 292T528 348T460 387T370 417Q324 429 294 438T247 457T222 481T215 513V515Q215 545 241 563T310
581Q393 581 490 515L539 586Q482 622 423 642T314 662Q234 662 183 622T126 515L115 516Q118 551 133 580T175 629T236 661T314 673Q366 673 428 652T550 593L555 589L493 500L488 503Q391 570 310 570Q272 570 249 556T226 515V513Q226 498 232 487T254 467T298
448T372 427Q423 414 464 397T535 355T581 296T597 213V211Q597 160 579 119T527 50T445 6T336 -10ZM540 216Q538 250 524 273T488 314T437 342T377 362L373 363Q309 380 268 395T204 427T172 465T163 515V518Q163 538 173 558T202 593T249 618T316 628Q362 628
404 616T496 575L490 565Q442 592 402 604T316 617Q281 617 255 609T210 586T183 554T174 518V515Q174 490 181 472T209 437T269 407T375 374L380 373Q412 364 442 352T495 322T534 279T551 217L540 216ZM352 35Q335 35 309 38T250 50T177 75T93 120L99 129Q142
102 180 86T251 61T309 49T352 46Q427 46 477 82T538 178L549 176Q538 111 485 73T352 35Z" />
<glyph unicode="t" glyph-name="t" horiz-adv-x="648" d="M350 0H241V555H29V657H562V646H40V566H252V11H350V0ZM405 5H394V566H606V696H35V707H617V555H405V5ZM350 6H339V563H350V6ZM302 49H291V599H79V610H612V599H302V49Z" />
<glyph unicode="u" glyph-name="u" horiz-adv-x="756" d="M375 -11Q229 -11 150 68Q68 150 68 303V701H79V303Q79 156 155 78T375 0Q521 0 597 79T674 308V696H582V307Q582 198 529 139T377 79Q278 79 225 140T172 313V657H183V313Q183 204 232 147T377 90Q471
90 521 145T571 307V707H685V308Q685 150 601 68Q520 -11 375 -11ZM375 32Q253 32 186 98Q117 169 117 296V707H232V307Q232 226 269 184T377 141Q447 141 484 182T521 302V701H532V302Q532 220 492 175T377 130Q302 130 262 176T221 307V696H128V296Q128 172 191
108T375 43Q496 43 560 109T625 300V657H636V300Q636 169 565 98Q497 32 375 32Z" />
<glyph unicode="v" glyph-name="v" horiz-adv-x="750" d="M338 43L71 706H197L375 226L552 702L562 699L375 195L190 695H88L345 54H407L649 659L660 655L414 43H338ZM445 -6H302L19 698L30 703L310 5H437L714 695H621L376 79L147 655L157 659L376 109L613 706H730L445
-6Z" />
<glyph unicode="w" glyph-name="w" horiz-adv-x="1122" d="M302 47L78 706H191L338 250L489 702L500 699L338 215L183 695H93L311 54H360L562 619L568 606L766 54H814L1019 658L1030 655L822 43H758L563 588L367 43H303L302 47ZM1093 706L849 -6H726L561 457L395
-6H272L31 699L41 702L280 5H387L561 490L734 5H841L1077 695H995L787 83L573 695H552L338 83L143 655L153 658L338 116L544 706H634L787 255L932 702L943 699L787 221L626 695H584L787 116L987 706H1093Z" />
<glyph unicode="x" glyph-name="x" horiz-adv-x="732" d="M150 0H23L269 359L39 698L48 704L283 359L44 11H144L364 336L556 52L547 46L364 317L150 0ZM695 2L450 361L679 696H579L368 389L187 654L196 660L368 408L573 707H700L463 361L704 8L695 2ZM129 46L119
52L330 359L93 707H225L368 486L511 704L520 698L368 465L219 696H114L343 359L129 46ZM649 0H517L364 234L212 2L203 8L364 254L523 11H628L390 361L594 660L603 654L403 361L649 0Z" />
<glyph unicode="y" glyph-name="y" horiz-adv-x="716" d="M440 5H429V284L430 286L692 696H590L358 326L155 654L165 660L358 347L584 707H712L440 281V5ZM339 49H328V287L62 707H196L359 432L523 704L533 698L359 411L190 696H82L339 290V49ZM388 0H276V278L9
698L19 704L287 281V11H377V293L378 294L611 660L621 654L388 290V0Z" />
<glyph unicode="z" glyph-name="z" horiz-adv-x="708" d="M650 44H115V123L530 605H121V616H554L126 118V55H639V134H250L639 587V696H77V707H650V583L274 145H650V44ZM645 0H60V124L436 561H72V663H595V590L175 101H601V90H151L584 594V652H83V572H460L71 120V11H645V0Z" />
<glyph unicode="{" glyph-name="braceleft" horiz-adv-x="1992" d="M635 163Q616 173 597 166V0H523V199Q542 208 572 212T648 215L635 163ZM719 81Q725 46 763 46Q782 46 796 49T819 58L836 12Q822 5 803 1T754 -3Q701 -3 675 27T649 106Q649 154 674 185T749
216Q799 216 822 184T842 97L719 81ZM745 172Q728 172 720 158T714 116L774 125Q774 172 745 172ZM943 -3Q908 -3 891 15T874 62V163H852V211H874V255L948 273V211H979V163H948V68Q948 46 964 46Q971 46 979 50V3Q974 1 965 -1T943 -3ZM1035 239Q1018 239 1007
248T996 272Q996 286 1007 296T1035 306Q1051 306 1062 296T1073 272Q1073 258 1062 249T1035 239ZM997 0V211H1071V0H997ZM1181 -3Q1143 -3 1117 25T1091 107Q1091 161 1118 188T1180 216Q1200 216 1213 212T1235 200L1220 159Q1211 166 1198 166Q1166 166 1166
107Q1166 49 1198 49Q1213 49 1220 57L1236 12Q1228 5 1216 1T1181 -3ZM1344 -3Q1297 -3 1273 13T1249 72V211H1323V66Q1323 58 1328 52T1346 46Q1358 46 1365 50V211H1439V13Q1423 5 1400 1T1344 -3ZM1466 0V308H1540V0H1466ZM1656 -3Q1557 -3 1557 65Q1557 85
1566 98T1592 120T1630 133T1675 140V149Q1675 161 1667 165T1643 170Q1627 170 1612 166T1585 157L1570 199Q1582 204 1604 210T1657 216Q1696 216 1720 198T1744 134V12Q1730 5 1708 1T1656 -3ZM1675 107Q1653 105 1640 98T1626 68Q1626 37 1659 37Q1669 37 1675
40V107ZM1783 0Q1778 0 1775 3T1771 12Q1771 17 1774 20T1783 24Q1788 24 1792 21T1796 12Q1796 0 1783 0ZM1852 149V0H1837V148H1818V157H1837V183Q1837 203 1848 216T1882 229V219Q1870 217 1861 211T1852 185V157H1882V149H1852ZM1956 147Q1945 149 1934 149T1917
143V0H1901V150Q1912 155 1923 157T1960 160L1956 147ZM516 71Q499 76 480 79Q463 81 442 81T398 77Q361 69 338 60T296 46T255 40T200 48Q183 52 164 62T126 84T87 111T49 141Q7 175 -35 217Q-3 206 28 196Q54 188 82 181T130 172Q150 171 180 175T244 183T313
190T377 190Q404 185 429 166T474 126Q497 101 516 71ZM458 170Q452 177 444 183Q437 188 428 193T407 203Q387 209 374 211T349 215T329 223T307 242Q295 255 286 278T270 325Q263 352 258 382Q268 368 279 356Q288 345 298 334T317 318Q326 312 341 306T373 293T407
278T436 261Q447 251 451 236T458 206Q460 188 458 170ZM508 55Q496 48 485 41Q475 34 464 26T443 7Q428 -10 420 -22T405 -43T387 -60T355 -74Q333 -81 301 -81T237 -78Q201 -74 161 -68Q183 -63 202 -58Q219 -53 235 -47T263 -35Q273 -29 283 -19T306 3T331 26T361
45Q384 55 410 58T458 60Q484 59 508 55Z" />
<glyph unicode="|" glyph-name="bar" horiz-adv-x="1992" d="M635 163Q616 173 597 166V0H523V199Q542 208 572 212T648 215L635 163ZM719 81Q725 46 763 46Q782 46 796 49T819 58L836 12Q822 5 803 1T754 -3Q701 -3 675 27T649 106Q649 154 674 185T749 216Q799
216 822 184T842 97L719 81ZM745 172Q728 172 720 158T714 116L774 125Q774 172 745 172ZM943 -3Q908 -3 891 15T874 62V163H852V211H874V255L948 273V211H979V163H948V68Q948 46 964 46Q971 46 979 50V3Q974 1 965 -1T943 -3ZM1035 239Q1018 239 1007 248T996
272Q996 286 1007 296T1035 306Q1051 306 1062 296T1073 272Q1073 258 1062 249T1035 239ZM997 0V211H1071V0H997ZM1181 -3Q1143 -3 1117 25T1091 107Q1091 161 1118 188T1180 216Q1200 216 1213 212T1235 200L1220 159Q1211 166 1198 166Q1166 166 1166 107Q1166
49 1198 49Q1213 49 1220 57L1236 12Q1228 5 1216 1T1181 -3ZM1344 -3Q1297 -3 1273 13T1249 72V211H1323V66Q1323 58 1328 52T1346 46Q1358 46 1365 50V211H1439V13Q1423 5 1400 1T1344 -3ZM1466 0V308H1540V0H1466ZM1656 -3Q1557 -3 1557 65Q1557 85 1566 98T1592
120T1630 133T1675 140V149Q1675 161 1667 165T1643 170Q1627 170 1612 166T1585 157L1570 199Q1582 204 1604 210T1657 216Q1696 216 1720 198T1744 134V12Q1730 5 1708 1T1656 -3ZM1675 107Q1653 105 1640 98T1626 68Q1626 37 1659 37Q1669 37 1675 40V107ZM1783
0Q1778 0 1775 3T1771 12Q1771 17 1774 20T1783 24Q1788 24 1792 21T1796 12Q1796 0 1783 0ZM1852 149V0H1837V148H1818V157H1837V183Q1837 203 1848 216T1882 229V219Q1870 217 1861 211T1852 185V157H1882V149H1852ZM1956 147Q1945 149 1934 149T1917 143V0H1901V150Q1912
155 1923 157T1960 160L1956 147ZM516 71Q499 76 480 79Q463 81 442 81T398 77Q361 69 338 60T296 46T255 40T200 48Q183 52 164 62T126 84T87 111T49 141Q7 175 -35 217Q-3 206 28 196Q54 188 82 181T130 172Q150 171 180 175T244 183T313 190T377 190Q404 185
429 166T474 126Q497 101 516 71ZM458 170Q452 177 444 183Q437 188 428 193T407 203Q387 209 374 211T349 215T329 223T307 242Q295 255 286 278T270 325Q263 352 258 382Q268 368 279 356Q288 345 298 334T317 318Q326 312 341 306T373 293T407 278T436 261Q447
251 451 236T458 206Q460 188 458 170ZM508 55Q496 48 485 41Q475 34 464 26T443 7Q428 -10 420 -22T405 -43T387 -60T355 -74Q333 -81 301 -81T237 -78Q201 -74 161 -68Q183 -63 202 -58Q219 -53 235 -47T263 -35Q273 -29 283 -19T306 3T331 26T361 45Q384 55
410 58T458 60Q484 59 508 55Z" />
<glyph unicode="}" glyph-name="braceright" horiz-adv-x="1992" d="M635 163Q616 173 597 166V0H523V199Q542 208 572 212T648 215L635 163ZM719 81Q725 46 763 46Q782 46 796 49T819 58L836 12Q822 5 803 1T754 -3Q701 -3 675 27T649 106Q649 154 674 185T749
216Q799 216 822 184T842 97L719 81ZM745 172Q728 172 720 158T714 116L774 125Q774 172 745 172ZM943 -3Q908 -3 891 15T874 62V163H852V211H874V255L948 273V211H979V163H948V68Q948 46 964 46Q971 46 979 50V3Q974 1 965 -1T943 -3ZM1035 239Q1018 239 1007
248T996 272Q996 286 1007 296T1035 306Q1051 306 1062 296T1073 272Q1073 258 1062 249T1035 239ZM997 0V211H1071V0H997ZM1181 -3Q1143 -3 1117 25T1091 107Q1091 161 1118 188T1180 216Q1200 216 1213 212T1235 200L1220 159Q1211 166 1198 166Q1166 166 1166
107Q1166 49 1198 49Q1213 49 1220 57L1236 12Q1228 5 1216 1T1181 -3ZM1344 -3Q1297 -3 1273 13T1249 72V211H1323V66Q1323 58 1328 52T1346 46Q1358 46 1365 50V211H1439V13Q1423 5 1400 1T1344 -3ZM1466 0V308H1540V0H1466ZM1656 -3Q1557 -3 1557 65Q1557 85
1566 98T1592 120T1630 133T1675 140V149Q1675 161 1667 165T1643 170Q1627 170 1612 166T1585 157L1570 199Q1582 204 1604 210T1657 216Q1696 216 1720 198T1744 134V12Q1730 5 1708 1T1656 -3ZM1675 107Q1653 105 1640 98T1626 68Q1626 37 1659 37Q1669 37 1675
40V107ZM1783 0Q1778 0 1775 3T1771 12Q1771 17 1774 20T1783 24Q1788 24 1792 21T1796 12Q1796 0 1783 0ZM1852 149V0H1837V148H1818V157H1837V183Q1837 203 1848 216T1882 229V219Q1870 217 1861 211T1852 185V157H1882V149H1852ZM1956 147Q1945 149 1934 149T1917
143V0H1901V150Q1912 155 1923 157T1960 160L1956 147ZM516 71Q499 76 480 79Q463 81 442 81T398 77Q361 69 338 60T296 46T255 40T200 48Q183 52 164 62T126 84T87 111T49 141Q7 175 -35 217Q-3 206 28 196Q54 188 82 181T130 172Q150 171 180 175T244 183T313
190T377 190Q404 185 429 166T474 126Q497 101 516 71ZM458 170Q452 177 444 183Q437 188 428 193T407 203Q387 209 374 211T349 215T329 223T307 242Q295 255 286 278T270 325Q263 352 258 382Q268 368 279 356Q288 345 298 334T317 318Q326 312 341 306T373 293T407
278T436 261Q447 251 451 236T458 206Q460 188 458 170ZM508 55Q496 48 485 41Q475 34 464 26T443 7Q428 -10 420 -22T405 -43T387 -60T355 -74Q333 -81 301 -81T237 -78Q201 -74 161 -68Q183 -63 202 -58Q219 -53 235 -47T263 -35Q273 -29 283 -19T306 3T331 26T361
45Q384 55 410 58T458 60Q484 59 508 55Z" />
<glyph unicode="~" glyph-name="asciitilde" horiz-adv-x="1992" d="M635 163Q616 173 597 166V0H523V199Q542 208 572 212T648 215L635 163ZM719 81Q725 46 763 46Q782 46 796 49T819 58L836 12Q822 5 803 1T754 -3Q701 -3 675 27T649 106Q649 154 674 185T749
216Q799 216 822 184T842 97L719 81ZM745 172Q728 172 720 158T714 116L774 125Q774 172 745 172ZM943 -3Q908 -3 891 15T874 62V163H852V211H874V255L948 273V211H979V163H948V68Q948 46 964 46Q971 46 979 50V3Q974 1 965 -1T943 -3ZM1035 239Q1018 239 1007
248T996 272Q996 286 1007 296T1035 306Q1051 306 1062 296T1073 272Q1073 258 1062 249T1035 239ZM997 0V211H1071V0H997ZM1181 -3Q1143 -3 1117 25T1091 107Q1091 161 1118 188T1180 216Q1200 216 1213 212T1235 200L1220 159Q1211 166 1198 166Q1166 166 1166
107Q1166 49 1198 49Q1213 49 1220 57L1236 12Q1228 5 1216 1T1181 -3ZM1344 -3Q1297 -3 1273 13T1249 72V211H1323V66Q1323 58 1328 52T1346 46Q1358 46 1365 50V211H1439V13Q1423 5 1400 1T1344 -3ZM1466 0V308H1540V0H1466ZM1656 -3Q1557 -3 1557 65Q1557 85
1566 98T1592 120T1630 133T1675 140V149Q1675 161 1667 165T1643 170Q1627 170 1612 166T1585 157L1570 199Q1582 204 1604 210T1657 216Q1696 216 1720 198T1744 134V12Q1730 5 1708 1T1656 -3ZM1675 107Q1653 105 1640 98T1626 68Q1626 37 1659 37Q1669 37 1675
40V107ZM1783 0Q1778 0 1775 3T1771 12Q1771 17 1774 20T1783 24Q1788 24 1792 21T1796 12Q1796 0 1783 0ZM1852 149V0H1837V148H1818V157H1837V183Q1837 203 1848 216T1882 229V219Q1870 217 1861 211T1852 185V157H1882V149H1852ZM1956 147Q1945 149 1934 149T1917
143V0H1901V150Q1912 155 1923 157T1960 160L1956 147ZM516 71Q499 76 480 79Q463 81 442 81T398 77Q361 69 338 60T296 46T255 40T200 48Q183 52 164 62T126 84T87 111T49 141Q7 175 -35 217Q-3 206 28 196Q54 188 82 181T130 172Q150 171 180 175T244 183T313
190T377 190Q404 185 429 166T474 126Q497 101 516 71ZM458 170Q452 177 444 183Q437 188 428 193T407 203Q387 209 374 211T349 215T329 223T307 242Q295 255 286 278T270 325Q263 352 258 382Q268 368 279 356Q288 345 298 334T317 318Q326 312 341 306T373 293T407
278T436 261Q447 251 451 236T458 206Q460 188 458 170ZM508 55Q496 48 485 41Q475 34 464 26T443 7Q428 -10 420 -22T405 -43T387 -60T355 -74Q333 -81 301 -81T237 -78Q201 -74 161 -68Q183 -63 202 -58Q219 -53 235 -47T263 -35Q273 -29 283 -19T306 3T331 26T361
45Q384 55 410 58T458 60Q484 59 508 55Z" />
</font>
</defs>
</svg>
