<svg width="18" height="45" viewBox="0 0 18 45" fill="none" xmlns="http://www.w3.org/2000/svg">
<path d="M17.6761 29.4237C17.6761 27.5413 15.4992 26.5577 14.092 27.6936L13.9052 27.8618L8.84173 32.9227C6.18412 30.1189 4.42236 25.6722 4.42236 20.5879C4.42235 11.9325 9.52791 5.12513 15.4672 5.12513C16.6871 5.12513 17.6761 4.13614 17.6761 2.91616C17.6761 1.69619 16.6871 0.707203 15.4672 0.707203C6.76671 0.707203 0.00442769 9.72358 0.00442792 20.5879C0.00442805 26.7878 2.20663 32.3858 5.71451 36.0499L0.651419 41.1155C-0.679647 42.4466 0.164208 44.6814 1.96239 44.8733L2.21339 44.8865L15.4672 44.8865C16.6 44.8865 17.5337 44.0337 17.6613 42.9351L17.6761 42.6775L17.6761 29.4237Z" fill="white"/>
</svg>
